<svg xmlns="http://www.w3.org/2000/svg" width="62.693" height="41.797" viewBox="0 0 62.693 41.797">
    <defs>
        <style>
            .cls-1{fill:#adbfa3}.cls-2{fill:#f4f4f4}.cls-4{fill:#445e37}.cls-5{fill:#5a7d48}
        </style>
    </defs>
    <g id="boat" transform="translate(0 -85.33)">
        <g id="Group_4693" transform="translate(2.717 90.554)">
            <g id="Group_4689" transform="translate(0 2.957)">
                <g id="Group_4687" transform="translate(12.956)">
                    <path id="Path_17639" d="M161.524 156.727h-18.807l-12.841 2.09H126v-2.09l4.179-8.359-.46-1.045 14.868-.136 4.138-.042 1.306 1.222z" class="cls-1" transform="translate(-126 -147.146)"/>
                    <path id="Path_17640" d="M377.58 227.121l-12.308 14.805a17.2 17.2 0 0 1-2.591.188 15.968 15.968 0 0 1-2.1-.125c.178-.01.345-.042.512-.063l12.307-14.805a1.045 1.045 0 0 0-.794-1.724h4.179a1.045 1.045 0 0 1 .794 1.724z" class="cls-1" transform="translate(-331.859 -215.816)"/>
                </g>
                <g id="Group_4688" transform="translate(0 .042)">
                    <path id="Path_17641" d="M157.345 157.026h-14.628l-12.841 2.09H126v-2.09l4.179-8.359-.46-1.045 14.868-.136 1.264 1.181z" class="cls-2" transform="translate(-113.044 -147.487)"/>
                    <path id="Path_17642" d="M74.686 227.12l-12.308 14.805c-.167.021-.334.052-.512.063a15.779 15.779 0 0 1-2.079.125c-6.812 0-7.5-3.375-13.071-4.054-5.558.679-6.248 4.054-13.05 4.054a15.814 15.814 0 0 1-2.09-.125c-5.067-.616-6.091-3.479-11.389-3.981l5.412-8.432h2.758l12.841-2.09H37.02l12.841-2.09h24.031a1.045 1.045 0 0 1 .794 1.724z" class="cls-2" transform="translate(-20.188 -215.857)"/>
                </g>
            </g>
            <path id="Path_17643" fill="none" stroke="#000" stroke-linecap="round" stroke-linejoin="round" stroke-width="2px" d="M179.77 351.349h-.01" transform="translate(-160.222 -323.389)"/>
            <g id="Group_4692" transform="translate(7.731)">
                <g id="Group_4690">
                    <path id="Path_17644" d="M109.454 225.4v2.09a2.1 2.1 0 0 1-2.09 2.09H83.333l2.821-3.761a1.059 1.059 0 0 1 .836-.418h22.464z" class="cls-4" transform="translate(-83.333 -212.859)"/>
                    <path id="Path_17645" d="M142.542 127.175h-22.986a2.09 2.09 0 0 1 0-4.179h17.668a5.224 5.224 0 0 1 4.67 2.884z" class="cls-4" transform="translate(-113.287 -122.996)"/>
                </g>
                <g id="Group_4691">
                    <path id="Path_17646" d="M106.319 225.4v2.09a2.1 2.1 0 0 1-2.09 2.09h-20.9l2.821-3.761a1.059 1.059 0 0 1 .836-.418h19.329z" class="cls-5" transform="translate(-83.333 -212.859)"/>
                    <path id="Path_17647" d="M139.407 127.175h-19.851a2.09 2.09 0 0 1 0-4.179h14.534a5.224 5.224 0 0 1 4.67 2.884z" class="cls-5" transform="translate(-113.287 -122.996)"/>
                </g>
                <path id="Path_17648" d="M245.64 161.309h-15.15a2.1 2.1 0 0 1-2.09-2.09v-2.09h11.493z" class="cls-1" transform="translate(-210.638 -152.951)"/>
                <path id="Path_17649" d="M240.938 161.309H230.49a2.1 2.1 0 0 1-2.09-2.09v-2.09h6.791z" class="cls-4" transform="translate(-210.638 -152.951)"/>
            </g>
        </g>
        <g id="Group_4694" transform="translate(0 85.33)">
            <path id="Path_17650" d="M61.645 114.585a14.583 14.583 0 0 0-8.082 2.219c-.459.253-.911.5-1.387.731L62.191 105.5a2.09 2.09 0 0 0-1.591-3.448h-9.064l-11.012-8.013-.533-1.065a6.236 6.236 0 0 0-5.607-3.465H23.632l-1.045-2.09h5.623a1.045 1.045 0 1 0 0-2.09H16.717a1.045 1.045 0 1 0 0 2.09h3.534l1.045 2.09h-4.579a3.134 3.134 0 1 0 0 6.269h1.444l-3.134 6.269h-.921a2.1 2.1 0 0 0-1.672.836l-2.508 3.343h-1.8a1.045 1.045 0 0 0-.88.481l-5.082 7.918c-.36-.021-.724-.04-1.122-.04a1.045 1.045 0 1 0 0 2.09 12.635 12.635 0 0 1 7.069 1.96 14.573 14.573 0 0 0 8.081 2.219 14 14 0 0 0 6.471-1.376l.015-.007c.557-.269 1.077-.554 1.591-.836a12.632 12.632 0 0 1 7.065-1.96 12.641 12.641 0 0 1 7.072 1.96 14.584 14.584 0 0 0 8.086 2.219 14.583 14.583 0 0 0 8.082-2.219 12.643 12.643 0 0 1 7.068-1.96 1.045 1.045 0 0 0 0-2.09zm-32.39-18.807h10.109l2.873 2.09H30.3a1.045 1.045 0 0 1-1.045-1.045v-1.045zm-13.583-3.134a1.045 1.045 0 0 1 1.045-1.044h17.668a4.147 4.147 0 0 1 3.608 2.09H16.717a1.045 1.045 0 0 1-1.045-1.046zm4.828 3.134h6.668v1.045a3.135 3.135 0 0 0 3.132 3.134h14.81l2.873 2.09h-30.62zm-6.392 8.359h21.416v1.045a1.045 1.045 0 0 1-1.045 1.045H12.538zm25.31 12.663a14.584 14.584 0 0 0-8.082-2.219 14.567 14.567 0 0 0-8.076 2.219 12.626 12.626 0 0 1-7.065 1.96 12.636 12.636 0 0 1-7.07-1.96 15.776 15.776 0 0 0-4.663-1.881l4.238-6.603h25.78a3.134 3.134 0 0 0 3.134-3.134v-1.045h3.134v3.134a1.045 1.045 0 0 0 2.09 0v-3.134h2.09v3.134a1.045 1.045 0 0 0 2.09 0v-3.134h2.09v3.134a1.045 1.045 0 0 0 2.09 0v-3.128h9.392l-12.04 14.488a15.564 15.564 0 0 1-2.056.134 12.641 12.641 0 0 1-7.076-1.965z" transform="translate(0 -85.33)"/>
            <path id="Path_17651" d="M61.646 375.434a14.582 14.582 0 0 0-8.082 2.219 12.643 12.643 0 0 1-7.068 1.96 12.641 12.641 0 0 1-7.072-1.96 14.584 14.584 0 0 0-8.086-2.219 14.567 14.567 0 0 0-8.077 2.219 12.626 12.626 0 0 1-7.065 1.96 12.636 12.636 0 0 1-7.07-1.96 14.572 14.572 0 0 0-8.08-2.219 1.045 1.045 0 1 0 0 2.09 12.635 12.635 0 0 1 7.069 1.96A14.573 14.573 0 0 0 16.2 381.7a14.558 14.558 0 0 0 8.077-2.22 12.631 12.631 0 0 1 7.065-1.959 12.642 12.642 0 0 1 7.072 1.96A14.584 14.584 0 0 0 46.5 381.7a14.583 14.583 0 0 0 8.082-2.219 12.643 12.643 0 0 1 7.068-1.96 1.045 1.045 0 1 0 0-2.09z" transform="translate(-.002 -339.91)"/>
        </g>
    </g>
</svg>
