<svg xmlns="http://www.w3.org/2000/svg" width="21.027" height="20.03" viewBox="0 0 21.027 20.03">
    <path fill="#2b3c81" d="M21.027 24.162a9.675 9.675 0 0 1-8.2 9.549 2.231 2.231 0 0 0 .024-.661l-.061-.55a8.445 8.445 0 0 0 4.31-2.117 1.143 1.143 0 0 1-.21-.236c-.313-.456.1-.909.1-1.308s-.789-.359-.818-.618c-.1-.9.551-.91.9-1.257s-.343-1.135-.788-1.085-1.711-.207-1.6-1.173c.141-1.176-1.5-1.073-1.734-1.622a1.577 1.577 0 0 1 .969-2.005c1.047-.317 2.081-1.179 2.002-2.129a3.574 3.574 0 0 0-1.387-2.635 8.4 8.4 0 0 0-2.689-.6c-.844.033-1.587.221-1.553.608.083.947 2.777 1.193 2.325 2.079-.236.462-2 1.113-1.674 1.8.215.447.744.064.546.922-.091.395-.437 1.136-.969 1.184s-1-1.391-2.479-1.438c-.7-.022-1.687 1.093-.849 1.884.507.479 1.459-.576 1.74.248.2.581-.027 1.8.9 2.31.337.186.853.348 1.364.607a18.153 18.153 0 0 0-2.79.867l-.927-.245c.388-.323 1.018-.55.86-1.256C8.1 24.247 6.3 24.638 5.063 23.4a4.951 4.951 0 0 1-1.19-3.163A8.457 8.457 0 0 0 3 25.446h-.044a2.818 2.818 0 0 0-1.129.237 9.66 9.66 0 1 1 19.2-1.519zm-7.247 2.816l-2.359 1.084.037-.514 1.528-.69c-.218-.016-.444-.022-.669-.022a12.668 12.668 0 0 0-3.849 1.054l-5.062-1.334a1.767 1.767 0 0 0-1.391.212l-.249.156a.393.393 0 0 0 0 .662L4.8 29.56c-.727.372-1.416.749-2.024 1.11l-1.561-.826a.982.982 0 0 0-.82-.044l-.148.059a.393.393 0 0 0-.2.557l.86 1.528c-.324.279-.509.511-.509.671 0 .479.59.6 1.11.6.928 0 13.178-2.8 13.178-5.346.004-.505-.34-.756-.906-.891zm-5.165 4.961l2.7-.95a.2.2 0 0 1 .26.162l.236 2.021a1.178 1.178 0 0 1-.674 1.205l-.253.118a.393.393 0 0 1-.46-.1l-1.891-2.141a.2.2 0 0 1 .082-.315z" transform="translate(0 -14.502)"/>
</svg>
