<?xml version="1.0" encoding="utf-8"?>
<!-- Generator: Adobe Illustrator 20.0.0, SVG Export Plug-In . SVG Version: 6.00 Build 0)  -->
<svg version="1.1" id="Layer_1" xmlns="http://www.w3.org/2000/svg" xmlns:xlink="http://www.w3.org/1999/xlink" x="0px" y="0px"
	 viewBox="0 0 20 20" style="enable-background:new 0 0 20 20;" xml:space="preserve">
<style type="text/css">
	.st0{fill:#41A03A;}
</style>
<path class="st0" d="M19.8,0.2c-0.6-0.6-2.9,0.5-3.5,1.1l-2.6,2.6H1.9c-0.3,0-0.6,0.3-0.6,0.6c0,0.2,0.1,0.5,0.4,0.5l7.8,3.1L4.7,13
	H0.2C0.1,12.9,0,13,0,13.1c0,0.1,0.1,0.2,0.1,0.2l3.8,1.5C4,14.9,4,15,4,15.1l-0.2,0.2c-0.2,0.2-0.2,0.6,0,0.9
	c0.2,0.2,0.6,0.2,0.9,0L4.9,16c0.1,0,0.2,0.1,0.3,0.1l1.5,3.8C6.7,20,6.8,20,6.9,20C7,20,7,19.9,7,19.8v-4.4l4.9-4.9l3.1,7.8
	c0.1,0.3,0.5,0.5,0.8,0.3c0.2-0.1,0.4-0.3,0.4-0.5V6.3l2.6-2.6C19.3,3,20.5,0.8,19.8,0.2z"/>
</svg>
