<?xml version="1.0" encoding="utf-8"?>
<!-- Generator: Adobe Illustrator 20.0.0, SVG Export Plug-In . SVG Version: 6.00 Build 0)  -->
<svg version="1.1" id="Layer_1" xmlns="http://www.w3.org/2000/svg" xmlns:xlink="http://www.w3.org/1999/xlink" x="0px" y="0px"
	 viewBox="0 0 21 20" style="enable-background:new 0 0 21 20;" xml:space="preserve">
<style type="text/css">
	.st0{fill:#41A03A;}
</style>
<path class="st0" d="M21,9.7c0,4.8-3.5,8.8-8.2,9.5c0-0.2,0-0.4,0-0.7L12.8,18c1.6-0.3,3.1-1,4.3-2.1c-0.1-0.1-0.2-0.1-0.2-0.2
	c-0.3-0.5,0.1-0.9,0.1-1.3s-0.8-0.4-0.8-0.6c-0.1-0.9,0.6-0.9,0.9-1.3s-0.3-1.1-0.8-1.1s-1.7-0.2-1.6-1.2c0.1-1.2-1.5-1.1-1.7-1.6
	c-0.3-0.8,0.1-1.7,1-2c1-0.3,2.1-1.2,2-2.1c-0.1-1-0.6-2-1.4-2.6c-0.9-0.3-1.8-0.5-2.7-0.6c-0.8,0-1.6,0.2-1.6,0.6
	c0.1,0.9,2.8,1.2,2.3,2.1c-0.2,0.5-2,1.1-1.7,1.8c0.2,0.4,0.7,0.1,0.5,0.9c-0.1,0.4-0.4,1.1-1,1.2S9.5,6.4,8,6.4
	c-0.7,0-1.7,1.1-0.8,1.9c0.5,0.5,1.5-0.6,1.7,0.2c0.2,0.6,0,1.8,0.9,2.3c0.3,0.2,0.9,0.3,1.4,0.6c-1,0.2-1.9,0.5-2.8,0.9L7.5,12
	c0.4-0.3,1-0.5,0.9-1.3c-0.2-1-2-0.6-3.3-1.9C4.3,8,3.9,6.9,3.9,5.7C3,7.3,2.7,9.2,3,10.9h0c-0.4,0-0.8,0.1-1.1,0.2
	C1,5.9,4.6,1,9.8,0.1s10.2,2.8,11.1,8C21,8.6,21,9.2,21,9.7L21,9.7z M13.8,12.5l-2.4,1.1l0-0.5l1.5-0.7c-0.2,0-0.4,0-0.7,0
	c-1.3,0.1-2.6,0.5-3.8,1.1l-5.1-1.3c-0.5-0.1-1,0-1.4,0.2l-0.2,0.2c-0.2,0.1-0.2,0.4-0.1,0.5c0,0,0.1,0.1,0.1,0.1l3,2
	c-0.7,0.4-1.4,0.7-2,1.1l-1.6-0.8c-0.3-0.1-0.6-0.1-0.8,0l-0.1,0.1C0,15.4-0.1,15.7,0,15.9c0,0,0,0,0,0l0.9,1.5
	c-0.3,0.3-0.5,0.5-0.5,0.7c0,0.5,0.6,0.6,1.1,0.6c0.9,0,13.2-2.8,13.2-5.3C14.7,12.9,14.3,12.6,13.8,12.5z M8.6,17.4l2.7-1
	c0.1,0,0.2,0,0.3,0.1c0,0,0,0,0,0l0.2,2c0.1,0.5-0.2,1-0.7,1.2L10.9,20c-0.2,0.1-0.3,0-0.5-0.1l-1.9-2.1C8.5,17.7,8.5,17.5,8.6,17.4
	C8.6,17.5,8.6,17.4,8.6,17.4z"/>
</svg>
