<svg xmlns="http://www.w3.org/2000/svg" width="20.036" height="19.988" viewBox="0 0 20.036 19.988">
    <path fill="#2b3c81" d="M19.843.731c-.649-.649-2.851.5-3.5 1.15l-2.6 2.6H1.927a.585.585 0 0 0-.215 1.129L9.528 8.7l-4.793 4.79H.2a.2.2 0 0 0-.074.392l3.814 1.507a1.644 1.644 0 0 0 .092.281l-.167.167a.608.608 0 1 0 .861.86l.163-.163a1.643 1.643 0 0 0 .284.1L6.645 20.4a.2.2 0 0 0 .226.126.2.2 0 0 0 .165-.2v-4.438l4.868-4.868 3.059 7.841a.585.585 0 0 0 1.131-.213V6.829l2.6-2.6c.648-.647 1.798-2.849 1.149-3.498z" transform="translate(0 -.539)"/>
</svg>
