<svg xmlns="http://www.w3.org/2000/svg" width="23.037" height="15.359" viewBox="0 0 23.037 15.359">
    <defs>
        <style>
            .cls-1{fill:#2b3c81}
        </style>
    </defs>
    <g id="boat_1_" transform="translate(0 -85.317)">
        <g id="Group_171" transform="translate(0 85.317)">
            <g id="Group_170">
                <path id="Path_262" d="M.384 96.835a6.026 6.026 0 0 1 .616.031 4.691 4.691 0 0 1 1.985.691 5.365 5.365 0 0 0 2.968.814 5.131 5.131 0 0 0 2.38-.506c.2-.1.4-.2.587-.307a4.627 4.627 0 0 1 2.6-.723 4.632 4.632 0 0 1 2.6.722 5.369 5.369 0 0 0 2.972.814 6.33 6.33 0 0 0 1.033-.077 5.523 5.523 0 0 0 1.935-.737 4.632 4.632 0 0 1 2.6-.722.384.384 0 1 0 0-.768 5.365 5.365 0 0 0-2.968.814c-.169.092-.334.184-.507.269l3.674-4.423a.768.768 0 0 0 .111-.822.754.754 0 0 0-.695-.445H18.94l-2.023-1.47-2.027-1.474-.192-.388a2.293 2.293 0 0 0-2.062-1.275H8.684l-.384-.768h2.066a.384.384 0 1 0 0-.768H6.143a.384.384 0 1 0 0 .768h1.3l.384.768H6.143a1.152 1.152 0 0 0 0 2.3h.534l-1.152 2.3h-.342a.768.768 0 0 0-.614.307L3.647 93h-.66a.378.378 0 0 0-.323.177L.8 96.079q-.2-.012-.415-.012a.384.384 0 0 0 0 .768zm15.358-3.455a.384.384 0 1 1-.768 0v-1.152h.768v1.152zm2.3-1.148h.768v1.148a.384.384 0 1 1-.768 0v-1.148zm-.768 0v1.148a.384.384 0 1 1-.768 0v-1.152h.768zm-7.291-3.076h.768v.384a.384.384 0 0 0 .384.384h4.385l1.056.768h-5.442a1.155 1.155 0 0 1-1.151-1.152zm-4.8 3.072h7.871v.384a.384.384 0 0 1-.384.388H4.607z" class="cls-1" transform="translate(0 -85.317)"/>
                <path id="Path_263" d="M22.653 375.418a5.359 5.359 0 0 0-2.97.816 4.646 4.646 0 0 1-2.6.72 4.645 4.645 0 0 1-2.6-.72 5.359 5.359 0 0 0-2.971-.816 5.354 5.354 0 0 0-2.968.816 4.639 4.639 0 0 1-2.6.72 4.643 4.643 0 0 1-2.6-.72 5.355 5.355 0 0 0-2.969-.816.384.384 0 1 0 0 .768 4.643 4.643 0 0 1 2.6.72 5.355 5.355 0 0 0 2.969.815 5.35 5.35 0 0 0 2.968-.816 4.641 4.641 0 0 1 2.6-.72 4.645 4.645 0 0 1 2.6.72 5.359 5.359 0 0 0 2.971.816 5.359 5.359 0 0 0 2.97-.816 4.646 4.646 0 0 1 2.6-.72.384.384 0 0 0 0-.768z" class="cls-1" transform="translate(0 -362.364)"/>
            </g>
        </g>
    </g>
</svg>
