<?xml version="1.0" encoding="utf-8"?>
<!-- Generator: Adobe Illustrator 20.0.0, SVG Export Plug-In . SVG Version: 6.00 Build 0)  -->
<svg version="1.1" id="Layer_1" xmlns="http://www.w3.org/2000/svg" xmlns:xlink="http://www.w3.org/1999/xlink" x="0px" y="0px"
	 viewBox="0 0 23 15.4" style="enable-background:new 0 0 23 15.4;" xml:space="preserve">
<style type="text/css">
	.st0{fill:#41A03A;}
</style>
<g id="boat_1_" transform="translate(0 -85.317)">
	<g id="Group_171" transform="translate(0 85.317)">
		<g id="Group_170">
			<path id="Path_262" class="st0" d="M0.4,11.5c0.2,0,0.4,0,0.6,0c0.7,0.1,1.4,0.3,2,0.7c0.9,0.6,1.9,0.8,3,0.8
				c0.8,0,1.6-0.1,2.4-0.5c0.2-0.1,0.4-0.2,0.6-0.3c0.8-0.5,1.7-0.7,2.6-0.7c0.9,0,1.8,0.2,2.6,0.7c0.9,0.6,1.9,0.8,3,0.8
				c0.3,0,0.7,0,1-0.1c0.7-0.1,1.3-0.4,1.9-0.7c0.8-0.5,1.7-0.7,2.6-0.7c0.2,0,0.4-0.2,0.4-0.4c0-0.2-0.2-0.4-0.4-0.4c0,0,0,0,0,0
				c-1,0-2.1,0.3-3,0.8c-0.2,0.1-0.3,0.2-0.5,0.3l3.7-4.4c0.2-0.2,0.2-0.5,0.1-0.8c-0.1-0.3-0.4-0.4-0.7-0.4h-3.3l-2-1.5l-2-1.5
				l-0.2-0.4c-0.4-0.8-1.2-1.3-2.1-1.3h-4L8.3,0.8h2.1c0.2,0,0.4-0.2,0.4-0.4S10.6,0,10.4,0c0,0,0,0,0,0H6.1C5.9,0,5.8,0.2,5.8,0.4
				s0.2,0.4,0.4,0.4c0,0,0,0,0,0h1.3l0.4,0.8H6.1C5.5,1.6,5,2.1,5.1,2.8c0,0.6,0.5,1,1.1,1.1h0.5L5.5,6.1H5.2
				c-0.2,0-0.5,0.1-0.6,0.3L3.6,7.7H3c-0.1,0-0.3,0.1-0.3,0.2l-1.9,2.9c-0.1,0-0.3,0-0.4,0c-0.2,0-0.4,0.2-0.4,0.4
				C0,11.3,0.2,11.5,0.4,11.5L0.4,11.5z M15.7,8.1c0,0.2-0.2,0.4-0.4,0.4S15,8.3,15,8.1c0,0,0,0,0,0V6.9h0.8V8.1z M18,6.9h0.8v1.1
				c0,0.2-0.2,0.4-0.4,0.4c-0.2,0-0.4-0.2-0.4-0.4c0,0,0,0,0,0V6.9z M17.3,6.9v1.1c0,0.2-0.2,0.4-0.4,0.4c-0.2,0-0.4-0.2-0.4-0.4
				c0,0,0,0,0,0V6.9L17.3,6.9L17.3,6.9z M10,3.8h0.8v0.4c0,0.2,0.2,0.4,0.4,0.4c0,0,0,0,0,0h4.4l1.1,0.8h-5.4
				c-0.6,0-1.1-0.5-1.2-1.2L10,3.8z M5.2,6.9h7.9v0.4c0,0.2-0.2,0.4-0.4,0.4c0,0,0,0,0,0H4.6L5.2,6.9z"/>
			<path id="Path_263" class="st0" d="M22.7,13.1c-1,0-2.1,0.3-3,0.8c-0.8,0.5-1.7,0.7-2.6,0.7c-0.9,0-1.8-0.2-2.6-0.7
				c-0.9-0.6-1.9-0.8-3-0.8c-1,0-2.1,0.3-3,0.8c-0.8,0.5-1.7,0.7-2.6,0.7c-0.9,0-1.8-0.2-2.6-0.7c-0.9-0.6-1.9-0.8-3-0.8
				c-0.2,0-0.4,0.2-0.4,0.4s0.2,0.4,0.4,0.4c0.9,0,1.8,0.2,2.6,0.7c0.9,0.6,1.9,0.8,3,0.8c1,0,2.1-0.3,3-0.8
				c0.8-0.5,1.7-0.7,2.6-0.7c0.9,0,1.8,0.2,2.6,0.7c0.9,0.6,1.9,0.8,3,0.8c1,0,2.1-0.3,3-0.8c0.8-0.5,1.7-0.7,2.6-0.7
				c0.2,0,0.4-0.2,0.4-0.4S22.9,13.1,22.7,13.1L22.7,13.1z"/>
		</g>
	</g>
</g>
</svg>
