<svg xmlns="http://www.w3.org/2000/svg" width="370.599" height="175.681" viewBox="0 0 370.599 175.681">
    <defs>
        <style>
            .cls-1{fill:#dde8fd}.cls-2{fill:#fda6a4}.cls-3{fill:#0b0754}.cls-5{fill:#fff}.cls-6{fill:#fc9290}.cls-7{fill:#b25656}.cls-8{fill:#ac4949}.cls-9{fill:#ec9393}.cls-10{fill:#ea8888}.cls-11{fill:#93b3f4}.cls-12{fill:#819ad6}.cls-13{fill:#bed2fa}.cls-14{fill:#6d89cf}.cls-15{fill:#e75755}.cls-16{fill:#fa7269}.cls-17{fill:#ed9b9b}.cls-18{fill:#f1afaf}.cls-20{fill:#ac504b}.cls-23{fill:#5076c9}.cls-26{fill:#7c95d4}.cls-27{fill:#0e0e23}.cls-28{fill:#f0acac}.cls-29{fill:#3662c1}.cls-30{fill:#a83f3f}.cls-31{fill:#ea8a8a}
        </style>
    </defs>
    <g id="Group_847" transform="translate(-1320.265 -677.774)">
        <path id="Path_1821" d="M1354.729 852.964s-34.775-58.439 9.684-101.281 82.7-19.106 102.1-20.3 25.622-38.713 83.014-50.03 150 1.153 99.446 81.486c-30.033 47.72 62.222 25.938 49.289 90.244z" class="cls-1" transform="translate(-18.17)"/>
        <g id="Group_820" transform="translate(1340.022 729.563)">
            <path id="Path_1822" d="M1824.861 1015.974s.167-1.045.217-1.753a5.32 5.32 0 0 0-.389-1.971c-.185-.585.77-1.263.77-1.663s-.493-.524-1.17-.308-2.68 2.218-2.125 3.265a8.962 8.962 0 0 1 .72 2.716c-.209 1.372-1.927 12.6-2.555 15.925-.959 5.076-9.478 6.448-9.478 6.448l4.139 5.832s8.615-8.317 9.775-11.228c.864-2.166.173-15.8.1-17.263z" class="cls-2" transform="translate(-1754.172 -1010.174)"/>
            <path id="Path_1823" d="M1569.922 1105.861s4.71 1.833 8.951-2.9c-.1.151-2.972 4.565-5.432 5.365.317.222.622.455.918.695a26.51 26.51 0 0 0 3.6 2.8 18.57 18.57 0 0 0 7.919 2.5 8.215 8.215 0 0 0 3.99-4.736c.328-.255.654-.512.972-.761a8.166 8.166 0 0 1-2.222 5.226 8.511 8.511 0 0 0 5.926-6.043c.057-.177.11-.357.159-.537.027-.1.053-.195.076-.293a14.077 14.077 0 0 0 .352-2.074 16.725 16.725 0 0 0-.99-7.4c-.04-.106-.081-.211-.122-.314a.066.066 0 0 1 0-.012 14.061 14.061 0 0 0-1.28-2.457 7.591 7.591 0 0 1-.859-5.039 26.7 26.7 0 0 1 2.669-8.167 6.287 6.287 0 0 0-1.069-1.211c-1.407-1.273-4.276-2.981-9.048-2.1-7.262 1.34-9.774 6.508-8.936 12.88s.645 10.057-4.2 11.73l-.05.017a2.186 2.186 0 0 0-1.324 2.831z" class="cls-3" transform="translate(-1550.668 -1067.564)"/>
            <path id="Path_1824" d="M1671.933 1193.44s5.925 6.7 8.4 7.578c2.549.909 11.7-.413 11.7-.413s-1.057-8.054-.833-10.544 5.748-11.588 6.195-15.347-3.814-7.588-3.814-7.588-2.883.007-3.07-.337c-.083-.156-.158-.315-.225-.474a7.836 7.836 0 0 1-.459-3.705l-5.514-.228c.049.667.088 1.238.118 1.733a3.719 3.719 0 0 1-2.568 3.77c-1.509.485-2.808 1.06-2.9 1.414-.476 1.8 4.046 14.213 2.491 15.423a64.393 64.393 0 0 0-9.521 8.718z" class="cls-2" transform="translate(-1636.899 -1138.668)"/>
            <path id="Path_1825" fill="#fc9391" d="M1751.366 1162.382s.369 2.728 5.973 3.933a7.834 7.834 0 0 1-.459-3.705z" transform="translate(-1703.956 -1138.668)"/>
            <path id="Path_1826" d="M1739.53 1110.1s-5.422 3.923-7.813.509-4.7-5.207-1.34-7.856 4.953-1.823 6.028-.877 4.473 7.116 3.125 8.224z" class="cls-2" transform="translate(-1684.814 -1086.821)"/>
            <path id="Path_1827" d="M1780.948 1145.675s.362.37 1.394-.344c0 0 .866-.6.553-1.056a3.384 3.384 0 0 0-1.947 1.4z" class="cls-5" transform="translate(-1728.929 -1123.381)"/>
            <path id="Path_1828" d="M1708.86 1071.878s2.089-3.274-1.33-4.987c-5.744-2.878-5.966 4.849-7.683 5.388s-3.738 4-1.659 6.4 4.763 1.834 5.319 3.053 2.4.633 2.271.194c-.05-.17-.5-.416-.751-1.052-.139-.351.24-.745.1-.75-1.378-.053-2.2-2.154-.722-2a1.85 1.85 0 0 0 2.031-1.847c-.063-.585-1.476-1.933-.163-2.686s1.842-.707 2.587-1.713z" class="cls-3" transform="translate(-1658.318 -1057.514)"/>
            <path id="Path_1829" d="M1682.615 1467.265a17.62 17.62 0 0 1-4.119-2.105s-1.181-21.22.436-26.524c.944-3.1 2.9-13.134 4.36-20.94 1.041-5.554 1.831-9.98 1.831-9.98h-21.371s1.637 17.6 4.762 26.177c.769 2.109 1.274 3.765 1.153 4.3-2.009 8.9 6.057 26.97 6.057 26.97a7.714 7.714 0 0 0-.365 3.46h11.5c-.226-.879-2.849-1.079-4.244-1.358z" class="cls-2" transform="translate(-1629.992 -1345.777)"/>
            <path id="Path_1830" d="M1577.681 1198.669s-6.659 8.28-8.544 9.23c-2.144 1.08-10.675 1.67-12.451 1.783a10.179 10.179 0 0 1-1.779-.912c-.792-.535-2.569.9-2.8 1.422s-.175.93.146.965.947-.672 1.4-.474a4.288 4.288 0 0 0 1.546.482c.485.018 1.1-.023 1.271-.036 1.464.333 9.907 2.173 14.188 1.326 1.221-.242 10.451-7.7 10.451-7.7l.85-7.581z" class="cls-2" transform="translate(-1535.623 -1168.036)"/>
            <path id="Path_1831" d="M1679.063 1407.715s-1.3 17.694 2.358 26.651l14.607-16.671c1.04-5.554 1.83-9.98 1.83-9.98z" class="cls-6" transform="translate(-1642.728 -1345.777)"/>
            <path id="Path_1832" d="M1484.16 1354.581c-3.112-.449-4.8 2.107-5.666 5.766a41.01 41.01 0 0 0-.794 9.409 91.639 91.639 0 0 0 .794 10.662 13.807 13.807 0 0 0-7.366-4.092c-11.111-1.856-15.027-4.1-15.537-4.412-.133-.371-.32-.929-.552-1.722-.492-1.684-.8-2.409-3.005-2.573s-4.464-2.679-4.911-1.9 2.121 4.241 3.014 5.134 3.575 3.011 3.579 3.013c9.748 9.153 27.509 16.642 27.509 16.642 4.019-1.921 18.932-29.077 18.932-29.077a34.335 34.335 0 0 0-15.997-6.85z" class="cls-2" transform="translate(-1447.072 -1300.878)"/>
            <path id="Path_1833" d="M1637.314 1143.027s4.726.439 5.512.13a23.316 23.316 0 0 0 3.826-2.646c.328-.255.654-.512.971-.761a13.8 13.8 0 0 1 3.106-2.158.116.116 0 0 1 .055.029 3.439 3.439 0 0 1 .54 1.311 25.72 25.72 0 0 1 .9 5.242.01.01 0 0 0 0 .005.152.152 0 0 1-.014.04v.005c-.2.278-3.185 2.721-4.486 3.777-.364.3-.6.486-.6.486l.087.045.227.115c.224.114.562.279.99.483.984.468 2.448 1.13 4.116 1.771 2.969 1.146 6.58 2.228 9.259 2.042q.29-.021.565-.06s-.439-2.537.194-3.654 4.882-11.375 5.071-12.127a16.093 16.093 0 0 0 .287-2.432c.016-.221.031-.433.05-.633a2.576 2.576 0 0 1 .294-1.26l.025-.024.014-.014.036-.035c.021-.022.046-.047.075-.073a.124.124 0 0 1 .02-.02 113.228 113.228 0 0 0 8.605-9.394l.044-.06a6.662 6.662 0 0 0 .956-1.608c.051-.159.1-.326.14-.5a24.762 24.762 0 0 0 .36-5.883h-.006a10.8 10.8 0 0 0-1.77-.314 11.522 11.522 0 0 0-2.206-.019 53 53 0 0 1-1.093 5.3c-.646.721-7.913 6.4-9.218 6.8h-.005a.4.4 0 0 1-.112.02h-.019c-.167 0-.332-.005-.487-.005a.1.1 0 0 0-.026 0c-.637 0-1.122.005-1.122.005s1.873 2.561 1.651 4.646-6.252 2.011-7.888.746a16.625 16.625 0 0 1-2.652-2.955c-.416-.557-.756-1.049-.963-1.355-.138-.2-.216-.323-.216-.323h-.006c-.011 0-.034.01-.068.022l-.046.015-.056.019c-.281.1-.854.3-1.431.545a9.712 9.712 0 0 0-.883.423h-.005a3.257 3.257 0 0 0-.489.32c-1.322 1.088-7.613 8.733-8.41 9.266h-.006a.189.189 0 0 1-.045.024c-.518.158-3.65.9-3.65.9a8.719 8.719 0 0 0-.264 1.821 5.6 5.6 0 0 0 .266 1.96z" class="cls-7" transform="translate(-1607.449 -1098.497)"/>
            <path id="Path_1834" d="M1643.626 1401.17c.571-.607 3.674-3.064 15.359-1.472 0 0-7.342-8.411-14.565-7.937a41 41 0 0 0-.794 9.409z" class="cls-6" transform="translate(-1612.999 -1332.292)"/>
            <path id="Path_1835" d="M1701.72 1272.182a58.072 58.072 0 0 0 5.423 2.415 12.173 12.173 0 0 0 2.312-7.775c-.368-3.424-3.6-5.259-4.071-5.511.6.478 1.629 6.287 1.423 6.6v.005c-.2.279-3.185 2.72-4.485 3.778-.369.301-.602.488-.602.488z" class="cls-8" transform="translate(-1662.045 -1222.183)"/>
            <path id="Path_1836" d="M1836.836 1169.429c.408-.4 9.031-8.92 9.775-11.228 0-.001-11.088 6.977-9.775 11.228z" class="cls-8" transform="translate(-1776.018 -1135.138)"/>
            <g id="Group_819" transform="translate(11.126 49.415)">
                <path id="Path_1837" d="M1562.278 1336.554s13.525 11.922 16.841 17.5c.088.147 0 .508 0 .666a11.175 11.175 0 0 1-6.353-1.047 7.714 7.714 0 0 0-6.25-.916 6.928 6.928 0 0 1-6.4-2.009c-2.081-2.12-5.095-1.153-6.658-1.079a5.946 5.946 0 0 1-4.316-1.86c-.893-1.042-3.795-2.009-4.986-1.3s-3.422.409-4.836-.707-2.158-3.051-4.986-2.456-4.241.6-5.506-.3-3.5-2.415-5.432-1.877-4.85-2.666-4.85-2.666-.142-.6 0-.666c1.93-.933 16.674-7.156 29.084-6.168a30.2 30.2 0 0 0 14.648 4.885z" class="cls-7" transform="translate(-1518.482 -1330.907)"/>
                <path id="Path_1838" d="M1518.884 1334.271s.141.156.383.394c.815.8 2.765 2.522 4.253 2.317a1.73 1.73 0 0 0 .214-.044c1.935-.535 4.165.986 5.43 1.879s2.679.893 5.506.3a4.182 4.182 0 0 1 1.6-.06c1.429.252 2.136 1.381 3.064 2.237.1.1.211.189.323.277a5.345 5.345 0 0 0 2.691 1.06 3.559 3.559 0 0 0 2.145-.354 2.583 2.583 0 0 1 1.54-.217 6.273 6.273 0 0 1 3.318 1.385c.046.044.089.089.127.134a5.942 5.942 0 0 0 4.316 1.86c1.115-.052 2.965-.56 4.692-.078a4.331 4.331 0 0 1 1.965 1.157 6.889 6.889 0 0 0 3.384 1.952 7.515 7.515 0 0 0 3.017.056 8.674 8.674 0 0 1 3.728-.121 9.322 9.322 0 0 1 2.521 1.035 11.178 11.178 0 0 0 6.353 1.047c-2.846-5.357-16.841-18.168-16.841-18.168a30.205 30.205 0 0 1-14.649-4.883c-13.318-1.059-29.08 6.835-29.08 6.835z" class="cls-9" transform="translate(-1518.821 -1327.339)"/>
                <g id="Group_818" transform="translate(.446 4.555)">
                    <path id="Path_1839" d="M1804.266 1428.278a7.507 7.507 0 0 0 3.017.056 8.675 8.675 0 0 1 3.729-.121c-.079-.1-5.275-6.738-5.936-6.317s-2.236 5.535-.81 6.382z" class="cls-10" transform="translate(-1759.696 -1411.703)"/>
                    <path id="Path_1840" d="M1714.441 1408.284c.046.044.088.089.127.135a5.942 5.942 0 0 0 4.316 1.86c1.115-.052 2.965-.56 4.692-.078-.041-.09-2.72-5.841-4.077-6.044-1.176-.176-4.742 2.337-5.058 4.127z" class="cls-10" transform="translate(-1684.356 -1396.737)"/>
                    <path id="Path_1841" d="M1521.345 1359.348c.815.8 2.766 2.522 4.253 2.316.071-.013.142-.028.214-.044.144-.061 9.351-3.986 9.824-4.867.443-.819-11.893 1.431-14.291 2.595z" class="cls-10" transform="translate(-1521.345 -1356.577)"/>
                    <path id="Path_1842" d="M1584.875 1379.3c1.266.893 2.679.893 5.506.3a4.181 4.181 0 0 1 1.6-.06s5.421-3.117 5.184-4.093-12.29 3.19-12.29 3.853z" class="cls-10" transform="translate(-1574.977 -1372.383)"/>
                    <path id="Path_1843" d="M1650.106 1401.291c.1.1.211.189.323.277a5.344 5.344 0 0 0 2.69 1.06 3.561 3.561 0 0 0 2.145-.354 2.582 2.582 0 0 1 1.54-.217c.345-.307 3.214-2.885 2.668-3.527-.581-.684-9.682 1.815-9.366 2.761z" class="cls-10" transform="translate(-1630.037 -1391.895)"/>
                </g>
            </g>
        </g>
        <path id="Path_1844" d="M1469.59 1658.536a6.171 6.171 0 0 0 2.067.243c-3.744-2.2-15.948-6.021-10.145-6.8 5.325-.719 9.323 4.7 10.653 6.784.6-.025 1.257-.088 1.935-.169-5.3-6.021-21.207-24.852-12.6-24.372 8.494.471 12.684 18.167 13.87 24.2.612-.088 1.234-.184 1.846-.28-.284-1.927-.291-5.181 2.587-6.183 3.939-1.371 2.955 3.961 1.54 5.627a4.3 4.3 0 0 1 2.192.192 3.773 3.773 0 0 1 1.68 2.115h-23.625c1.51-.649 5.587-2.215 8-1.357z" class="cls-11" transform="translate(-117.117 -807.42)"/>
        <g id="Group_821" transform="translate(1660.932 835.428)">
            <path id="Path_1845" d="M3535.961 1705.03s.884-15.929 5.963-15.364 0 5.52-1.435 8.454a76.582 76.582 0 0 0-2.982 7.592z" class="cls-11" transform="translate(-3531.416 -1689.652)"/>
            <path id="Path_1846" d="M3554.746 1742.845s2.8-9.665 6.544-9.191 2.236 3.263-.415 4.919-6.129 4.272-6.129 4.272z" class="cls-11" transform="translate(-3547.273 -1726.784)"/>
            <path id="Path_1847" d="M3522.409 1785.524h-15.215c-1.142-.617.315-2.373 1.845-2.487a8.991 8.991 0 0 1 2.329.275c.557.118 1.159.26 1.793.4.413.091.838.178 1.275.258.157.031.315.057.477.085a16.269 16.269 0 0 0 2.988.236c2.876-.07 4.132.87 4.508 1.233z" class="cls-11" transform="translate(-3506.785 -1768.48)"/>
        </g>
        <g id="Group_828" transform="translate(1442.888 744.12)">
            <g id="Group_824" transform="translate(10.818)">
                <g id="Group_822" transform="translate(24.123)">
                    <path id="Path_1848" d="M2373.582 1104.72s9.847-2.226 12.043-.38 6.49 34.244 6.49 34.244-6-13.01-7.819-19.492c-1.909-6.808-10.714-14.372-10.714-14.372z" class="cls-12" transform="translate(-2367.036 -1103.608)"/>
                    <path id="Path_1849" d="M2356.642 1138.762c-.241-.26-24.91-26.891-25.073-29.449s5.879-5.409 13.958-5.492c0 0-5.95 4.353-5.7 5.864.445 2.706 4.434 4.994 7.564 12.038a152.034 152.034 0 0 0 9.251 17.039z" class="cls-13" transform="translate(-2331.565 -1103.788)"/>
                </g>
                <g id="Group_823" transform="translate(0 16.239)">
                    <path id="Path_1850" d="M2225.93 1226.563c-.138-.107-1.8-1.392-4.341-3.245h-.007c-7.63-5.559-23.175-16.209-29.27-15.442a22.806 22.806 0 0 0-7.784 2.673c-5.2 2.816-9.015 6.97-7.424 8.538 2.336 2.3 32.811-.963 48.835 7.486zM2186.292 1216s5.113-2.331 6.9-2.183 14.572 3.026 16.082 4.295-22.982-2.112-22.982-2.112z" class="cls-14" transform="translate(-2176.738 -1207.833)"/>
                    <path id="Path_1851" d="M2225.938 1241.272c-16.025-8.449-46.5-5.184-48.835-7.485-1.59-1.568 2.228-5.722 7.424-8.538-.065.065-3.194 3.153-.424 3.807 2.555.6 21.776-1.282 37.478 8.961l.007.005a42.141 42.141 0 0 1 4.341 3.245z" class="cls-12" transform="translate(-2176.738 -1222.535)"/>
                </g>
                <path id="Path_1852" d="M2491.082 1198.413s7.7-15.216 6.627-23.537a21.31 21.31 0 0 1-2.518 2.4s-1.586-2.378-1.7-2.687l.115.31s-3.182 18.648-2.524 23.514z" class="cls-12" transform="translate(-2442.03 -1163.453)"/>
                <path id="Path_1853" d="M2492.528 1248.432s6.491-14.777 22.05-14.7c0 0-2.594 2.294-2.612 3.215 0 0 2.772.771 3.6.863 0 0-13.825 2.61-21.3 10.82z" class="cls-13" transform="translate(-2443.327 -1213.455)"/>
            </g>
            <g id="Group_827" transform="translate(0 32.304)">
                <g id="Group_825" transform="translate(1.519 7.109)">
                    <path id="Rectangle_2042" d="M0 0H72.046V69.169H0z" class="cls-15" transform="rotate(180 36.023 34.584)"/>
                    <path id="Rectangle_2043" d="M0 0H72.046V69.169H0z" class="cls-9" transform="rotate(180 54.035 34.584)"/>
                    <path id="Path_1854" d="M2348.264 1356.573h72.236v21.992l-72.232 47.177z" class="cls-16" transform="translate(-2312.241 -1356.573)"/>
                </g>
                <g id="Group_826">
                    <path id="Rectangle_2044" d="M0 0H37.542V11.992H0z" class="cls-17"/>
                    <path id="Rectangle_2045" d="M0 0H73.512V11.992H0z" class="cls-18" transform="translate(37.542)"/>
                </g>
                <path id="Rectangle_2046" d="M0 0H5.569V76.374H0z" class="cls-11" transform="translate(72.583)"/>
                <path id="Rectangle_2047" d="M0 0H5.569V76.213H0z" class="cls-12" transform="translate(16.747)"/>
            </g>
        </g>
        <g id="Group_829" transform="translate(1568.332 798.971)">
            <path id="Path_1855" d="M3082.991 1456.207s-4.853-1.1-5.935-.187-3.2 16.875-3.2 16.875a93.956 93.956 0 0 0 3.854-9.605c.942-3.356 5.281-7.083 5.281-7.083z" class="cls-15" transform="translate(-3048.71 -1455.659)"/>
            <path id="Path_1856" d="M3073.865 1472.982c.119-.128 12.275-13.251 12.355-14.512s-2.9-2.666-6.878-2.706c0 0 2.932 2.145 2.809 2.89-.22 1.333-2.186 2.461-3.728 5.932a74.95 74.95 0 0 1-4.558 8.396z" class="cls-9" transform="translate(-3048.716 -1455.748)"/>
            <path id="Path_1857" d="M3073.863 1516.252c7.9-4.163 22.914-2.554 24.065-3.689.784-.773-1.1-2.82-3.658-4.207a11.243 11.243 0 0 0-3.835-1.317c-3-.378-10.664 4.87-14.424 7.61-1.252.913-2.071 1.546-2.139 1.6zm8.213-4.169c.744-.625 7.045-2.043 7.924-2.116a12.329 12.329 0 0 1 3.4 1.076s-12.067 1.664-11.323 1.039z" class="cls-9" transform="translate(-3048.714 -1499.017)"/>
            <path id="Path_1858" d="M3073.863 1523.5c7.9-4.163 22.914-2.554 24.065-3.688.784-.773-1.1-2.82-3.658-4.207.032.032 1.573 1.554.208 1.876-1.26.3-10.731-.632-18.468 4.415a20.8 20.8 0 0 0-2.139 1.6z" class="cls-15" transform="translate(-3048.714 -1506.262)"/>
            <path id="Path_1859" d="M3058.335 1521.546s-3.532-5.146-2.87-8.047a8.761 8.761 0 0 0 1.2.789s.817-.85.879-.959l-.062.109s1.256 6.411.853 8.108z" class="cls-15" transform="translate(-3033.112 -1504.318)"/>
            <path id="Path_1860" d="M2973.552 1508.5s-5.123-10.84-17.681-10.662c0 0 2.075 1.671 2.083 2.349 0 0-2.244.59-2.915.665 0 0 11.138 1.814 17.1 7.806z" class="cls-9" transform="translate(-2948.403 -1491.265)"/>
            <path id="Rectangle_2048" fill="#a94141" d="M0 0H35.502V34.085H0z" transform="translate(18.474 19.422)"/>
            <path id="Rectangle_2049" d="M0 0H35.502V34.085H0z" class="cls-20" transform="translate(.722 19.422)"/>
            <path id="Path_1861" fill="#9e332e" d="M2952.1 1580.526h-35.594v10.837l35.594 23.248z" transform="translate(-2915.876 -1561.072)"/>
            <path id="Rectangle_2050" fill="#b76060" d="M0 0H18.5V5.909H0z" transform="rotate(180 27.363 10.914)"/>
            <path id="Rectangle_2051" d="M0 0H36.225V5.909H0z" class="cls-20" transform="rotate(180 18.113 10.914)"/>
            <path id="Rectangle_2052" d="M0 0H2.744V37.636H0z" class="cls-18" transform="rotate(180 9.479 26.777)"/>
            <path id="Rectangle_2053" d="M0 0H2.744V37.556H0z" class="cls-16" transform="translate(43.728 15.919)"/>
        </g>
        <g id="Group_830" transform="translate(1409.547 809.707)">
            <path id="Path_1862" d="M1998.227 1525.007s3.88-.877 4.745-.15 2.557 13.493 2.557 13.493a75.175 75.175 0 0 1-3.081-7.68c-.748-2.682-4.221-5.663-4.221-5.663z" class="cls-15" transform="translate(-1981.881 -1524.569)"/>
            <path id="Path_1863" d="M1991.552 1538.42c-.1-.1-9.815-10.6-9.879-11.6s2.317-2.132 5.5-2.164c0 0-2.344 1.715-2.247 2.311.176 1.066 1.747 1.967 2.981 4.743a59.853 59.853 0 0 0 3.645 6.71z" class="cls-9" transform="translate(-1967.905 -1524.64)"/>
            <path id="Path_1864" d="M1940.051 1573.015c-.054-.042-.709-.548-1.71-1.279-3.006-2.19-9.131-6.387-11.532-6.084a8.988 8.988 0 0 0-3.067 1.053c-2.047 1.109-3.552 2.746-2.925 3.364.92.907 12.927-.38 19.241 2.949zm-15.618-4.164a9.866 9.866 0 0 1 2.718-.86c.7.059 5.741 1.192 6.336 1.692s-9.054-.832-9.054-.832z" class="cls-9" transform="translate(-1916.407 -1559.236)"/>
            <path id="Path_1865" d="M1940.054 1578.81c-6.314-3.329-18.321-2.042-19.241-2.949-.627-.618.877-2.255 2.925-3.364-.026.026-1.258 1.242-.167 1.5 1.007.238 8.58-.505 14.767 3.531a16.584 16.584 0 0 1 1.71 1.279z" class="cls-15" transform="translate(-1916.407 -1565.03)"/>
            <path id="Path_1866" d="M2044.369 1577.251s2.824-4.115 2.294-6.434a7 7 0 0 1-.957.631s-.654-.679-.7-.767l.049.087s-1.008 5.126-.686 6.483z" class="cls-15" transform="translate(-2020.78 -1563.476)"/>
            <path id="Path_1867" d="M2045.093 1566.821s4.1-8.667 14.137-8.525c0 0-1.659 1.336-1.665 1.878 0 0 1.794.472 2.331.531 0 0-8.906 1.451-13.676 6.241z" class="cls-9" transform="translate(-2021.445 -1553.039)"/>
            <path id="Rectangle_2054" d="M0 0H28.387V27.253H0z" class="cls-14" transform="translate(.599 15.529)"/>
            <path id="Rectangle_2055" d="M0 0H28.387V27.253H0z" class="cls-14" transform="translate(14.792 15.529)"/>
            <path id="Path_1868" d="M1988.251 1624.239h28.46v8.665l-28.46 18.588z" class="cls-11" transform="translate(-1973.459 -1608.71)"/>
            <path id="Rectangle_2056" d="M0 0H14.792V4.725H0z" class="cls-23" transform="translate(0 12.728)"/>
            <path id="Rectangle_2057" d="M0 0H28.964V4.725H0z" class="cls-13" transform="translate(14.792 12.728)"/>
            <path id="Rectangle_2058" d="M0 0H2.194V30.092H0z" class="cls-18" transform="translate(28.599 12.728)"/>
            <path id="Rectangle_2059" d="M0 0H2.194V30.029H0z" class="cls-16" transform="translate(6.598 12.728)"/>
        </g>
        <path id="Rectangle_2060" fill="#060632" d="M.492 0h369.616a.492.492 0 0 1 .492.492.491.491 0 0 1-.491.491H.491A.491.491 0 0 1 0 .492.492.492 0 0 1 .492 0z" transform="translate(1320.265 852.472)"/>
        <g id="Group_838" transform="translate(1419.672 683.043)">
            <g id="Group_831" transform="translate(48.657)">
                <path id="Path_1869" d="M2305.717 729.81a6.677 6.677 0 0 1 1.185 3.891 6.047 6.047 0 0 1-1.57 3.157l2.166 1.155s1.606-2.851 1.064-5.233a6.094 6.094 0 0 0-1.5-2.418 2.079 2.079 0 0 0-1.345-.552z" class="cls-13" transform="translate(-2299.918 -726.971)"/>
                <path id="Path_1870" d="M2271.961 714.621l-1.371-3.031s6.4.216 8.52 5.431c0 0-4.478-3.194-7.149-2.4z" class="cls-1" transform="translate(-2270.59 -711.59)"/>
            </g>
            <g id="Group_832" transform="translate(115.898 145.538)">
                <path id="Path_1871" d="M2705.826 1669.514a3.842 3.842 0 0 1-1.631 1.679 3.486 3.486 0 0 1-2.028.087l.021 1.412a5.037 5.037 0 0 0 2.932-.918 3.5 3.5 0 0 0 .8-1.427 1.2 1.2 0 0 0-.094-.833z" class="cls-1" transform="translate(-2702.168 -1665.804)"/>
                <path id="Path_1872" d="M2717.125 1647.234l1.146-1.533s1.67 3.284-.367 5.8c-.004-.001.364-3.142-.779-4.267z" class="cls-5" transform="translate(-2714.795 -1645.701)"/>
            </g>
            <g id="Group_833" transform="translate(0 70.482)">
                <path id="Path_1873" d="M1961.932 1170.2a5.669 5.669 0 0 1-1.919-2.873 5.136 5.136 0 0 1 .5-2.953l-2.044-.407s-.6 2.712.42 4.515a5.171 5.171 0 0 0 1.811 1.6 1.765 1.765 0 0 0 1.232.118z" class="cls-13" transform="translate(-1958.293 -1163.968)"/>
                <path id="Path_1874" d="M1969.767 1194.929l1.859 2.128s-5.255 1.4-8.26-2.323c0 0 4.425 1.496 6.401.195z" class="cls-5" transform="translate(-1962.575 -1189.941)"/>
            </g>
            <g id="Group_834" transform="translate(124.587 13.435)">
                <path id="Path_1875" d="M2758.981 804.288a5.368 5.368 0 0 1 .676-3.2 4.863 4.863 0 0 1 2.331-1.614l-1.076-1.654a7.044 7.044 0 0 0-2.781 3.272 4.894 4.894 0 0 0 .116 2.284 1.669 1.669 0 0 0 .734.912z" class="cls-13" transform="translate(-2758.026 -797.82)"/>
                <path id="Path_1876" d="M2762.082 825.306l-.211 2.667s-4.422-2.637-3.892-7.132c0 0 1.914 3.987 4.103 4.465z" class="cls-5" transform="translate(-2757.935 -817.254)"/>
            </g>
            <g id="Group_835" transform="translate(165.789 62.473)">
                <path id="Path_1877" d="M3030.15 1114.077s1.122-2.416 6.114-1.146c2.238.569 6.111 3.86.989 6.638-5.327 2.89-7.009-.129-7.009-.129s8.58-1.409 7.355-4.874c-1.352-3.825-4.947.316-4.947.316a6.6 6.6 0 0 0-2.502-.805z" class="cls-9" transform="translate(-3028.94 -1112.562)"/>
                <path id="Path_1878" fill="#e96463" d="M3022.762 1137.305a2.66 2.66 0 0 1 .575-3.393l2.128 1.7s-2.071 1.633 0 3.1c.001 0-2.405-.661-2.703-1.407z" transform="translate(-3022.387 -1130.586)"/>
            </g>
            <g id="Group_836" transform="translate(61.823 44.281)">
                <path id="Path_1879" d="M2372.409 997.139a3.747 3.747 0 0 1 5.285 1.029l2.489-1.071s-1.229-1.941-6.053-1.08c-3.157.564-1.721 1.122-1.721 1.122z" class="cls-26" transform="translate(-2369.436 -995.798)"/>
                <path id="Path_1880" d="M2355.093 999.19s.822-3.392 7.013-3.392c0 0-2.32.22-4.133 3.231z" class="cls-27" transform="translate(-2355.093 -995.798)"/>
            </g>
            <g id="Group_837" transform="translate(139.255 83.917)">
                <path id="Path_1881" d="M2856.133 1256.053a3.4 3.4 0 0 1-1.886-4.512l-2.063-1.341s-.847 1.907 2.235 5.118c2.016 2.101 1.714.735 1.714.735z" class="cls-26" transform="translate(-2852.077 -1250.2)"/>
                <path id="Path_1882" d="M2864.632 1276.1s-2.977 1.089-6.1-3.589c0 0 1.336 1.642 4.525 1.494z" class="cls-27" transform="translate(-2857.527 -1269.036)"/>
            </g>
            <path id="Path_1883" d="M2995.018 1366.109s1.428-.9 1.578-1.991c0 0 1.39.075 1.691.526 0 0-.639 1.8-1.391 2.142.004 0-1.69.114-1.878-.677z" class="cls-9" transform="translate(-2833.493 -1262.452)"/>
            <path id="Path_1884" d="M2154.319 897.679s1.715-1.083 1.9-2.391c0 0 1.67.09 2.031.632 0 0-.767 2.166-1.67 2.572-.005 0-2.035.135-2.261-.813z" class="cls-9" transform="translate(-2123.777 -866.667)"/>
            <path id="Path_1885" d="M2011.042 1351.388s-1.829-1.155-2.021-2.551c0 0-1.781.1-2.166.674 0 0 .819 2.31 1.781 2.743 0 0 2.164.146 2.406-.866z" class="cls-9" transform="translate(-1999.289 -1249.552)"/>
            <path id="Path_1886" d="M2494.251 896.564s-1.957-1.235-2.162-2.728c0 0-1.9.1-2.317.721 0 0 .875 2.471 1.9 2.934.005 0 2.321.155 2.579-.927z" class="cls-5" transform="translate(-2406.966 -865.442)"/>
            <path id="Path_1887" d="M2981.288 885.36s1.837-1.16 2.031-2.562c0 0 1.789.1 2.176.677 0 0-.822 2.321-1.789 2.756 0 0-2.176.144-2.418-.871z" class="cls-5" transform="translate(-2821.902 -856.123)"/>
        </g>
        <g id="Group_845" transform="translate(1611.126 739.041)">
            <path id="Path_1888" d="M3301.1 1724.869c-.1 1.223-1.825 1.223-3.782.981s-1.44.258-4.183.276-3.683-.9-3.812-1.289c-.116-.348 1.208-.632 2.623-.965.178-.041.357-.085.535-.128a7.2 7.2 0 0 0 4.032-2.609c1.189-1.525 2.277-8.467 2.277-8.467l4.287.8s-2.5 5.95-2.751 7.9c-.115.876.508 1.46.654 2.227a4.8 4.8 0 0 1 .12 1.274z" class="cls-28" transform="translate(-3273.396 -1612.695)"/>
            <path id="Path_1889" d="M3297.312 1785.255c-1.957-.242-1.431.061-4.173.078s-3.683-.9-3.812-1.288c-.116-.349 1.208-.632 2.623-.966l.017.026a7.687 7.687 0 0 0 4.019.75c1.843-.171 3.727-.926 5-1.054a4.806 4.806 0 0 1 .12 1.274c-.106 1.225-1.837 1.425-3.794 1.18z" class="cls-23" transform="translate(-3273.396 -1671.902)"/>
            <g id="Group_839" transform="translate(23.876 48.832)">
                <path id="Path_1890" d="M3358.715 1386.509s-2.339 7.534-4.254 15.18c-.193.778-.384 1.556-.567 2.328-.415 1.752-.793 3.471-1.1 5.064-.132.683-.25 1.343-.353 1.974-.1.653-.195 1.273-.264 1.853a20.129 20.129 0 0 0-.163 2.481c0 .174.008.34.018.5.435 6.461-7.181 25.583-7.181 25.583a4.37 4.37 0 0 1-2.317.031 6.992 6.992 0 0 1-2.179-.935 117.562 117.562 0 0 0 2.437-15.147 142.064 142.064 0 0 0 .557-21.3c-.085-1.874-.118-3.624-.113-5.241a74.861 74.861 0 0 1 .957-12.665c.779-4.195 14.522.294 14.522.294z" class="cls-14" transform="translate(-3340.356 -1384.424)"/>
            </g>
            <path id="Path_1891" d="M3374.328 1386.509s-2.34 7.534-4.255 15.18c-.194.778-.384 1.556-.567 2.328-.415 1.752-.793 3.471-1.1 5.064-.132.683-.25 1.343-.353 1.974-.105.653-.195 1.273-.264 1.853l-8.942-14.027a74.781 74.781 0 0 1 .957-12.665c.78-4.196 14.524.293 14.524.293z" class="cls-29" transform="translate(-3332.093 -1335.593)"/>
            <path id="Path_1892" d="M3412.384 1731.974c-.1 1.223-1.825 1.223-3.782.981s-1.44.258-4.184.276-3.682-.9-3.812-1.289c-.116-.348 1.208-.632 2.623-.965.178-.041.357-.085.536-.128 1.6-.393 2.661-1.578 4.032-2.609 1.3-.977.39-5.715.39-5.715l4.03-1.439s-.607 4.766-.607 7.389c0 .884.507 1.46.653 2.227a4.762 4.762 0 0 1 .121 1.272z" class="cls-28" transform="translate(-3367.337 -1619.801)"/>
            <path id="Path_1893" d="M3408.642 1785.237c-1.958-.242-1.481.078-4.225.1s-3.682-.9-3.812-1.288c-.116-.349 1.208-.632 2.623-.966l.017.026a7.687 7.687 0 0 0 4.019.75c1.842-.171 3.727-.926 5-1.054a4.766 4.766 0 0 1 .121 1.274c-.1 1.221-1.785 1.4-3.743 1.158z" class="cls-23" transform="translate(-3367.337 -1671.902)"/>
            <path id="Path_1894" d="M3405.056 1359.415s4.472 22.284 5.227 34.413 1.7 22.17 1.7 22.17a5.915 5.915 0 0 0 2.1.288 7.7 7.7 0 0 0 2.119-.432s4.432-18.248 2.964-25.552-.245-14.042.459-20.1c1.011-8.687-2.877-12.725-5.59-15.477-2.753-2.787-8.979 4.69-8.979 4.69z" class="cls-14" transform="translate(-3371.1 -1309.995)"/>
            <path id="Path_1895" d="M3377.3 1079.611c-.444-3.628.689-9.433 7.93-8.506s9.523 8.044 8.063 11.208 2.1 3.927 3.221 7.33c.961 2.923 1.3 6.553 2.851 8.182 5.013 5.251-4.813 13.328-10.736 11.624-10.789-3.1-12.179-3.564-11.8-12.042.2-4.343 3.576-6.026 1.43-7.283-5.177-3.034.048-2.303-.959-10.513z" class="cls-30" transform="translate(-3346.515 -1071.007)"/>
            <path id="Path_1896" d="M3398.787 1153.9l2.142 3.213 4.315-.212 1.993-5.153s-.615-.116-.9-6.542l-5.386 1.643a10.493 10.493 0 0 1-.1 3.5 5.809 5.809 0 0 1-2.064 3.551z" class="cls-28" transform="translate(-3365.808 -1133.649)"/>
            <path id="Path_1897" d="M3373.531 1183.833c.277 0 5.351-1.7 12.6 1.254 0 0-3.44 19.679-1.962 23.434a39.7 39.7 0 0 1 2.039 7.089l-16.028.2s.224-12.891-.515-17.453 3.866-14.524 3.866-14.524z" class="cls-28" transform="translate(-3341.152 -1165.844)"/>
            <path id="Path_1898" d="M3262.031 1208.938a6.6 6.6 0 0 1-.184-.995 15.331 15.331 0 0 1 .744-6.212.012.012 0 0 0 0-.006l.029-.09c.016-.05.036-.127.06-.226v-.008c.023-.09.048-.2.077-.322l.027-.13c.413-1.848 1.318-6.488 1.557-7.121a6.181 6.181 0 0 0 .246-1.013c.241-1.4.348-3.62-.467-4.549-1.134-1.293-5-2.268-5-2.268-.792 1.241-3.5 4.322-6.868 3.768-1.945-.321-2.246-4.106-2.246-4.106a8.466 8.466 0 0 0-2.624.605s-5.011 3.127-12.09 13.081c-.225.317-.759.28-2.066.027-1.665-.324-5.061-.282-10.185-1.034 0 0-.177.128-.225.688a8.3 8.3 0 0 1-.229 1.6 63.875 63.875 0 0 0 6.963 2.727c1.27.4 2.6.779 3.863 1.063a19.81 19.81 0 0 0 3.286.493 23.627 23.627 0 0 0 8.053-5.938c.231 3.665.742 8.4.429 11.857-.179 1.968-1.526 8.591-1.188 9.693.7 2.3 6.111 2.414 10.94 2.175.105 0 .21-.01.316-.017.748-.043 1.483-.109 2.169-.185a29.949 29.949 0 0 0 3.145-.5 15.249 15.249 0 0 0 3.088-.99 3.285 3.285 0 0 0 1.612-1.367c-.456-2.499-2.693-7.938-3.232-10.7z" class="cls-9" transform="translate(-3217.066 -1167.797)"/>
            <path id="Path_1899" d="M3390.9 1239.018c.914 3.1 1.446 5.656 3.744 7.383.749-.043 1.483-.108 2.169-.185a29.962 29.962 0 0 0 3.145-.5 15.255 15.255 0 0 0 3.088-.99 3.283 3.283 0 0 0 1.612-1.367c-.464-2.5-2.7-7.939-3.239-10.7a6.583 6.583 0 0 1-.107-.724 18.022 18.022 0 0 1 .666-6.484.012.012 0 0 0 0-.005l.089-.316a.023.023 0 0 0 0-.008c.02-.068.045-.178.077-.322l.028-.13c.369-1.75 1.333-7.244 1.579-7.961a7.25 7.25 0 0 0 .241-1.094l-1.93-1.857s-11.072 4.728-13.511 11.25 1.033 9.559 2.349 14.01z" class="cls-16" transform="translate(-3356.451 -1191.517)"/>
            <path id="Path_1900" d="M3267.287 1265.725a31 31 0 0 0 7.149 1.556 23.656 23.656 0 0 0 8.132-6.025c.168-.753.331-2.017-.583-1.652-1.28.511-6.014 6.59-7.806 6.717a55.627 55.627 0 0 1-6.892-.596z" class="cls-16" transform="translate(-3254.795 -1230.165)"/>
            <path id="Path_1901" d="M3323.414 1211.406a56.817 56.817 0 0 0 10.19 3.876 21.276 21.276 0 0 0 3.792.61 19.207 19.207 0 0 0 8.973-7.005c7.5-10.508 1.71-11.642 1.71-11.642s-5.011 3.127-12.089 13.081c-.248.348-.87.27-2.48-.056-1.72-.347-5.143-.306-9.868-1a2.643 2.643 0 0 0-.127.736c-.107 1.238-.101 1.4-.101 1.4z" class="cls-9" transform="translate(-3302.177 -1177.577)"/>
            <path id="Path_1902" d="M3222.594 1268.982a63.875 63.875 0 0 0 6.963 2.727c1.27.4 2.6.779 3.863 1.063a9.319 9.319 0 0 0-.187-5.046c-1.665-.324-5.221-.346-10.346-1.1z" class="cls-31" transform="translate(-3217.066 -1236.149)"/>
            <path id="Path_1903" d="M3194.215 1261.034a10.716 10.716 0 0 1-2.377-.792c-1.08-.54-3.96-.9-4.572-.324s.648 2.916 3.276 2.989a8.421 8.421 0 0 1 3.384.5z" class="cls-31" transform="translate(-3187.113 -1230.237)"/>
            <path id="Path_1904" d="M3412.057 1150.352c2.227-.18 5.481-5.142 5.481-5.142l-5.386 1.643a10.5 10.5 0 0 1-.095 3.499z" class="cls-31" transform="translate(-3377.01 -1133.649)"/>
            <path id="Path_1905" d="M3397.552 1100.409s6.45 1.3 7.194-2.734 2.079-6.576-2.007-7.573-5.173.392-5.749 1.676-1.096 8.19.562 8.631z" class="cls-28" transform="translate(-3363.82 -1086.839)"/>
            <path id="Path_1906" d="M3423.84 1084.538s-.113 1.366 2.008 3.685 2.106 6.666 2.106 6.666 3.084-6.932 1.178-9.078-5.292-1.273-5.292-1.273z" class="cls-30" transform="translate(-3386.957 -1082.282)"/>
            <path id="Path_1907" d="M3400.424 1073.116s-3.207-1.073-6.389 2.062c-1.371 1.351-1.164 4.006-.43 5.547 0 0 1.128-3.3 3.18-4.022s3.639-3.587 3.639-3.587z" class="cls-30" transform="translate(-3360.946 -1072.638)"/>
            <path id="Path_1908" d="M3403.949 1142.628s-.172.478-1.386.261c0 0-1.02-.182-.926-.719a3.324 3.324 0 0 1 2.312.458z" class="cls-5" transform="translate(-3368.208 -1131.042)"/>
            <g id="Group_844" transform="translate(1.169 18.938)">
                <g id="Group_840" transform="translate(2.401)">
                    <path id="Path_1909" d="M3256.324 1192.753s-1.756-.4-2.148-.068-1.157 6.106-1.157 6.106a33.945 33.945 0 0 0 1.395-3.476 7.044 7.044 0 0 1 1.91-2.562z" class="cls-7" transform="translate(-3246.321 -1192.555)"/>
                    <path id="Path_1910" d="M3253.022 1198.823c.043-.047 4.442-4.795 4.471-5.251s-1.049-.964-2.489-.979c0 0 1.062.776 1.017 1.045-.08.483-.791.891-1.349 2.147a27.114 27.114 0 0 1-1.65 3.038z" class="cls-20" transform="translate(-3246.323 -1192.587)"/>
                    <path id="Path_1911" d="M3253.02 1214.48c2.857-1.507 8.291-.924 8.708-1.335.284-.28-.4-1.02-1.324-1.523a4.064 4.064 0 0 0-1.388-.477c-1.086-.137-3.858 1.762-5.219 2.753-.453.33-.75.559-.774.578zm2.972-1.509a14.318 14.318 0 0 1 2.868-.766 4.468 4.468 0 0 1 1.229.389s-4.366.606-4.097.377z" class="cls-20" transform="translate(-3246.321 -1208.244)"/>
                    <path id="Path_1912" d="M3253.02 1217.1c2.857-1.507 8.291-.924 8.708-1.335.284-.28-.4-1.02-1.324-1.522.012.011.569.562.076.679-.456.107-3.883-.229-6.682 1.6a7.574 7.574 0 0 0-.774.579z" class="cls-7" transform="translate(-3246.321 -1210.864)"/>
                    <path id="Path_1913" d="M3247.4 1216.4s-1.278-1.862-1.039-2.912a3.143 3.143 0 0 0 .434.285s.3-.307.318-.347-.022.04-.022.04a13.6 13.6 0 0 1 .309 2.934z" class="cls-7" transform="translate(-3240.675 -1210.161)"/>
                    <path id="Path_1914" d="M3216.724 1211.675a7.183 7.183 0 0 0-6.4-3.858s.751.6.754.85c0 0-.812.214-1.055.24 0 0 4.03.656 6.188 2.825z" class="cls-20" transform="translate(-3210.025 -1205.438)"/>
                </g>
                <g id="Group_843" transform="translate(0 5.76)">
                    <g id="Group_841" transform="translate(.228 1.268)">
                        <path id="Rectangle_2061" d="M0 0H12.846V12.333H0z" class="cls-15" transform="translate(6.456)"/>
                        <path id="Rectangle_2062" d="M0 0H12.846V12.333H0z" class="cls-9" transform="translate(.033)"/>
                        <path id="Path_1915" d="M3208.957 1237.66h-12.879v3.921l12.879 8.412z" class="cls-16" transform="translate(-3196.078 -1237.66)"/>
                    </g>
                    <g id="Group_842">
                        <path id="Rectangle_2063" d="M0 0H6.694V2.138H0z" class="cls-17" transform="rotate(180 9.9 1.069)"/>
                        <path id="Rectangle_2064" d="M0 0H13.107V2.138H0z" class="cls-18" transform="rotate(180 6.553 1.069)"/>
                    </g>
                    <path id="Rectangle_2065" d="M0 0H0.993V13.618H0z" class="cls-20" transform="rotate(180 3.43 6.809)"/>
                    <path id="Rectangle_2066" d="M0 0H0.993V13.589H0z" class="cls-7" transform="translate(15.823)"/>
                </g>
            </g>
            <path id="Path_1916" d="M3297 1265.033a5.568 5.568 0 0 1-.094-5.011c-1.656-.335-4.915-.487-9.374-1.118-.2-.188-.7-.69-.722-1.019-.032-.411-1.378-1.258-1.876-1.707 0 0-.461.142-.112.748.1.164.282.431.461.676l-.193-.127c-.475-.317-4.241-.3-4.894.313s1.056 3.274 3 3.274c.84 0 3.175.322 3.9.424a63.988 63.988 0 0 0 9.904 3.547z" class="cls-28" transform="translate(-3265.569 -1227.328)"/>
        </g>
        <g id="Group_846" transform="translate(1517.602 719.355)">
            <path id="Path_1917" d="M2795.037 1516.2s6.611 2.295 8.789 2.006c0 0 .145-1.115-1.771-2.154s-3.567-4.506-4.607-4.243a9.755 9.755 0 0 0-2.416 1.2z" class="cls-3" transform="translate(-2762.595 -1423.429)"/>
            <path id="Path_1918" d="M2847.258 1446.288s6.906-1.135 8.682-2.426c0 0-.4-1.05-2.584-1.05s-5.283-2.261-6.073-1.534a9.761 9.761 0 0 0-1.552 2.208z" class="cls-3" transform="translate(-2805.396 -1363.782)"/>
            <path id="Path_1919" d="M2622.125 1360.85q-2.823-.089-5.312-.239c-25.205-1.488-25.942-7.094-25.942-7.094-4.192-12.845 12.652-25.6 12.652-25.6s10.221-1.435 9.814 4.572-14.545 17.807-14.545 17.807c4.708.441 12.362 3.088 17.609 5.083 3.347 1.273 5.716 2.28 5.716 2.28a3.133 3.133 0 0 1 .381 1.62 4.878 4.878 0 0 1-.373 1.571z" class="cls-29" transform="translate(-2589.679 -1268.078)"/>
            <path id="Path_1920" d="M2616.813 1360.611c-25.205-1.488-25.942-7.094-25.942-7.094-4.192-12.845 12.652-25.6 12.652-25.6s10.221-1.435 9.814 4.572-14.545 17.807-14.545 17.807c4.708.441 12.362 3.088 17.609 5.083a7.494 7.494 0 0 1 .412 5.232z" class="cls-29" transform="translate(-2589.679 -1268.078)"/>
            <path id="Path_1921" d="M2672.08 1346.207l-.025.006c-21.7 5.859-29.353 5.774-31.558 5.333-.978-.2-1.667-1.623-1.667-1.623-4.19-12.845 13.676-27.324 13.676-27.324s7.7-.348 9.845 3.163a3.894 3.894 0 0 1 .54 2.356c-.261 3.869-6.116 9.444-10.251 12.923-2.185 1.839-3.89 3.092-4.036 3.2l-.008.005c7.217-4.454 21.933-.834 21.933-.834a4.633 4.633 0 0 1 1.125 1.1 4.008 4.008 0 0 1 .426 1.695z" class="cls-14" transform="translate(-2630.193 -1263.707)"/>
            <path id="Path_1922" d="M2774.1 1037.234c-.27.937-1.986 6.768-3.463 11.264a25.842 25.842 0 0 1-2.081 5.306 21.431 21.431 0 0 1-2.764 1.541 72.609 72.609 0 0 1-7.467 3.193 23.916 23.916 0 0 1-4.624 1.271 5.516 5.516 0 0 1-1.3.1c-2.336-.143-2.463-2.716-2.177-4.83.1-.6.207-1.175.318-1.62.159-.651.3-1.08.3-1.08s.366-.079.985-.207c1.176-.254 3.273-.683 5.624-1.064a64.219 64.219 0 0 1 6.9-.794s1.144-2.081 2.59-4.671c1.748-3.145 3.924-7.038 4.957-8.754a1.231 1.231 0 0 0 .191-.556 4.5 4.5 0 0 0 2.011.901z" class="cls-28" transform="translate(-2724.676 -1022.046)"/>
            <path id="Path_1923" d="M2648.866 960.546c-.191.429-.4.842-.588 1.255 0 0 .461 1.064 1.081 2.621a.635.635 0 0 0 .063.159c.111.254.206.525.317.81.635 1.652 1.366 3.67 1.907 5.561.016.063.047.127.063.191a21.619 21.619 0 0 1 .731 3.431 5.529 5.529 0 0 1 .016 1.35l-5.687 4.083-.1-.334a105.135 105.135 0 0 1-3.209-13.488 15.479 15.479 0 0 1-.207-3.035s-.46-2.24 1.986-7.292a57.245 57.245 0 0 1 6.5-10.025s.348-.588.666-1.175a16.455 16.455 0 0 0 1.832 1.4 1.372 1.372 0 0 0-.735.73 102.215 102.215 0 0 1-4.02 12.281.05.05 0 0 1-.015.032.958.958 0 0 1-.08.19 1.644 1.644 0 0 0-.063.159c-.111.286-.239.572-.365.858z" class="cls-28" transform="translate(-2634.439 -944.659)"/>
            <path id="Path_1924" d="M2608.781 1058.64a139.837 139.837 0 0 0-14.271-12.834 17.207 17.207 0 0 1-.695-2.834 3.415 3.415 0 0 0-.19 2.2 20.874 20.874 0 0 0-4.828-2.707c-.46-2.677 2.115-5.49 2.115-5.49-2.212.9-3.109 3.848-3.4 5.2a2.7 2.7 0 0 0-.663.022s-.222-9.039 13.584-9.039c5.372 0 4.6-9.333 12.249-8.663 0 0 8.35 1.632 6.791 8.914s1 8.914 1.894 10.546-2.899 13.052-12.586 14.685z" class="cls-30" transform="translate(-2586.845 -1012.023)"/>
            <path id="Path_1925" d="M2722.82 1107.282l-8.053 3.189-.855-3.568a14.526 14.526 0 0 1 .206-3.377 26.949 26.949 0 0 1 .878-3.674l.017-.053.207-.005.668-.018 4.526-.116a8.632 8.632 0 0 0-.3 1.882 6.668 6.668 0 0 0 2.706 5.74z" class="cls-28" transform="translate(-2694.091 -1075.51)"/>
            <path id="Path_1926" fill="#3a49cd" d="M2661.248 1134.726s-10.82 5.987-2.518 30.226l17.3.943s-7.391-10.283-5.623-13.817 5.3-14.621 5.3-14.621z" transform="translate(-2644.885 -1105.113)"/>
            <path id="Path_1927" d="M2679.456 1031.836s-1.507 5.065-2.231 5.469-10.212 5.273-13.087 5.664a6.348 6.348 0 0 0-1.362.274.225.225 0 0 0-.115.089.091.091 0 0 0-.008.022c-.2.535-2.751 9.213-2.81 11.515-.042 1.6 7.03 11.928 6.947 13.1a.811.811 0 0 1-.072.287c-.4.878-2.346.8-3.946-.035a25.348 25.348 0 0 0-4.072-1.661 12.1 12.1 0 0 0-5.639-.6c-3.264.67-6.612-.167-7.785-3.766s-1-10.965-1.338-12.472-.629-6.233 1.378-9.372a2.035 2.035 0 0 0-.167-1.548c-.419-1.046-3.473-12.054-3.013-15.36a17.29 17.29 0 0 1 2.15-6.9 5.8 5.8 0 0 1 2.316 1.234c1.067.952 1.763 1.941 1.931 1.983a21.1 21.1 0 0 0-1.061 2.722c.063.21 3.871 11.008 4.08 11.635 0 0 1.5-.13 1.823.2 0 0-.127 3.1 6.9.53 0 0 .434-.07.454.293 0 0 9.067-1.448 12.221-1.674 0 0 .169-.019 1.143-1.842a15.476 15.476 0 0 1 1.636-2.681 4.009 4.009 0 0 1 3.727 2.894z" class="cls-14" transform="translate(-2633.484 -1005.338)"/>
            <path id="Path_1928" d="M2738.717 1213.279a.812.812 0 0 1-.071.287c-.4.878-2.346.8-3.946-.035a25.387 25.387 0 0 0-4.072-1.661 57.1 57.1 0 0 1-3.255-10.452c-.9-5.24 6.174-11.825 7.207-12.754-.2.535-2.75 9.213-2.81 11.515-.042 1.606 7.03 11.929 6.947 13.1z" class="cls-29" transform="translate(-2705.411 -1150.648)"/>
            <path id="Path_1929" d="M2721.392 1102.057s-3.77 1.917-6 1.985a26.877 26.877 0 0 1 .878-3.675 2.286 2.286 0 0 1 .224-.058 1.775 1.775 0 0 1 .468-.036c.066 0 .133.011.2.018a12.369 12.369 0 0 1 4.23 1.766z" class="cls-31" transform="translate(-2695.365 -1076.026)"/>
            <path id="Path_1930" d="M2706.6 1049.088s6.429 3.258 8.4-.777 4.122-6.332.1-8.583-5.575-1.1-6.56.084-3.566 8.325-1.94 9.276z" class="cls-28" transform="translate(-2687.496 -1023.831)"/>
            <path id="Path_1931" d="M2714.559 1037.745s1.949 1.939 1.376 3.78.354 5.505 2.865 5.924 5.5-8.072 2.193-9.7-8.706-2.44-10.337-.389a5.877 5.877 0 0 0-1 4.644s2.259-4.385 4.903-4.259z" class="cls-30" transform="translate(-2690.419 -1021.882)"/>
            <path id="Path_1932" d="M2713.4 1093.281s-.264.435-1.411-.02c0 0-.963-.381-.764-.888a3.328 3.328 0 0 1 2.175.908z" class="cls-5" transform="translate(-2691.822 -1069.358)"/>
        </g>
        <path id="Path_1933" d="M2824.658 1694.109h9.776a10.561 10.561 0 0 0-3.734-1.423c1.761-3.343 5.089-10.171 3.479-11.221-1.654-1.079-3.418 7.261-4.14 11.143q-.421-.035-.817-.029c-.47-4.979-2.153-20.059-5.12-17.56-2.878 2.423 2.382 13.511 4.463 17.6a7.961 7.961 0 0 0-3.907 1.49z" class="cls-11" transform="translate(-1268.824 -841.637)"/>
        <path id="Path_1934" d="M2703.319 925.68a7.141 7.141 0 0 0-.739.564 5.724 5.724 0 0 0 1.082-3.225c-.056-.243-2.787.472-3.236 1.709-.23.635-1.238 2.508-1.238 2.508l1.542.781s.613-.333.881-.258a2.226 2.226 0 0 0 1.519-.8s.655-1.359.189-1.279z" class="cls-28" transform="translate(-1164.082 -206.995)"/>
        <path id="Path_1935" d="M2887.344 1002.563c-.76.193-2.543 2.96-2.533 3.459v.2c-.1-.247-.2-.51-.28-.657-.283-.542-.6-.269-.6-.269.1.578.087 1.969.375 2.186s.429 1.108.429 1.108l2.014.967s1.128-2.506 1.6-3.242c.91-1.433-.249-3.944-1.005-3.752z" class="cls-28" transform="translate(-1320.04 -274.177)"/>
    </g>
</svg>
