<svg xmlns="http://www.w3.org/2000/svg" width="370.216" height="183.329" viewBox="0 0 370.216 183.329">
    <defs>
        <style>
            .cls-2{fill:#060632}.cls-3{fill:#ea8888}.cls-4{fill:#e75755}.cls-5{fill:#0b0754}.cls-6{fill:#fc9290}.cls-7{fill:#fa7269}.cls-8{fill:#3a49cd}.cls-9{fill:#93b3f4}.cls-10{fill:#6d89cf}.cls-12{fill:#010117}.cls-13{fill:#3662c1}
        </style>
    </defs>
    <g id="Group_885" transform="translate(-913.889 -673.105)">
        <path id="Path_1936" fill="#dde8fd" d="M971.621 855.974s-40.579-43.569-6.863-90.739c29.916-41.852 61.25-24.818 90.466-15.344 21.188 6.871 42.241-5.772 68.987-48.358 36.473-58.076 162.9-22.853 139.85 66.5-11.156 43.24 33.951 44.812 10.967 88.034z" transform="translate(-30.903)"/>
        <path id="Path_1937" d="M2191.456 1656.115c.032.016.07.031.114.047h22.544c-.211-.8-.948-2.264-3.528-2.683-3.5-.568-9.561-2.6-10.914-7.076-.042-.143-.081-.291-.115-.44-1.073-4.781-8.882 1.465-8.882 1.465s-.024.19-.057.515c-.181 1.757-.644 7.429.838 8.172z" class="cls-2" transform="translate(-1052.591 -800.714)"/>
        <path id="Path_1938" d="M2217.586 1249.937s-14.661 52.081-19.078 72.223c0 0-10.882 2.184-12.574-1.237 0 0 3.506-56.716 9.956-63.92 8.024-8.962 21.696-7.066 21.696-7.066z" class="cls-2" transform="translate(-1048.903 -475.507)"/>
        <g id="Group_849" transform="translate(1085.606 686.436)">
            <path id="Path_1939" d="M2350.464 857.411a10.819 10.819 0 0 1 .216-4.27c.6-1.94 3.11-7.058 2.316-8.836s-3.669-6.562-5.443-6.548 1.865 5.12 1.365 6.715-.665 1.725-1.281 1.584-1.554-3.194-1.866-2.481a17.091 17.091 0 0 0 .456 6.618c.586 1.18-.616 7.832-.616 7.832z" class="cls-3" transform="translate(-2266.176 -822.205)"/>
            <path id="Path_1940" d="M2205.487 931.822s-3.925-2.23-6.961-1.29c0 0-6.026 17.354-9.344 30.115a268.068 268.068 0 0 1-10.289-31.392s-7.723 10.665-10.511 17.757 13.873 31.972 20.338 33.925c6.748 2.038 5.519 0 9.326-2.182 1.225-1.59 5.142-9.499 7.441-46.933z" class="cls-4" transform="translate(-2119.78 -897.653)"/>
            <path id="Path_1941" d="M2477.666 1660.745a1.149 1.149 0 0 0 .114.047h22.544c-.211-.8-.948-2.264-3.528-2.683-3.5-.568-9.561-2.6-10.914-7.076-.042-.143-.081-.291-.115-.44-1.074-4.781-8.883 1.465-8.883 1.465s-.024.19-.057.515c-.181 1.754-.643 7.427.839 8.172z" class="cls-2" transform="translate(-2374.2 -1490.968)"/>
            <path id="Path_1942" d="M1990.541 1223.537a29.316 29.316 0 0 0-4.907 2.975 13.722 13.722 0 0 0-.753-2.59c-19.347-5.039-71.135-4.628-71.135-4.628s-11.134 2.788-7.865 19c3.009 14.915 52.732 8.009 68.793 3.534q.564-.157 1.092-.329c-1.277 9.5 7.671 23.06 15.505 35.535 6.458 10.284 11.954 20.695 11.954 20.695 3.243 2.011 14.132.848 14.132.848-6.88-19.44-26.816-75.04-26.816-75.04z" class="cls-5" transform="translate(-1903.089 -1136.807)"/>
            <g id="Group_848" transform="translate(44.755)">
                <path id="Path_1943" d="M2147.918 859.355s5.554 17.781 13.9 21.758c0 0 .789-5.395-.561-9.5 1.1-.843 2.078-1.626 2.929-2.331a54.3 54.3 0 0 0 4.259-3.862l-1.24-8.67-.841-5.883a26.808 26.808 0 0 1-4.155 3.871 22.023 22.023 0 0 1-14.291 4.617z" class="cls-6" transform="translate(-2147.918 -833.018)"/>
                <path id="Path_1944" d="M2225.543 872.936s-2.8 7.7 1.977 14.544a54.313 54.313 0 0 0 4.259-3.862l-1.24-8.67a17.448 17.448 0 0 0-4.996-2.012z" class="cls-3" transform="translate(-2211.254 -851.213)"/>
                <path id="Path_1945" d="M2237.58 819.621s-12.3-8.161-7.1-15.742 7.115-13.741 15.188-8.851 7.6 8.818 6.479 11.771-11.233 14.75-14.567 12.822z" class="cls-6" transform="translate(-2214.94 -785.532)"/>
                <path id="Path_1946" d="M2223.118 751.577c-.054-.206-.284-.464-.907-.814a2.865 2.865 0 0 1 1.364.244c.577-.839 1.835-2.207 3.558-1.845a2.168 2.168 0 0 0-1.621.951c2.682-.982 7.146-.466 17.264 5.539 13.335 7.914 4.338 14.7 2.014 14.893s-5.4-4.97-8.882-6.341-6.524 3.231-7.99 3.348-.435-.856-1.626-2.314-2.6 1.056-2.984 2.955-3.578 3.082-3.578 3.082l-.99-3.379c-.99-3.379 1.842-14.25 3.844-15.881.176-.145.353-.292.534-.438z" class="cls-5" transform="translate(-2206.147 -749.102)"/>
            </g>
            <path id="Path_1947" d="M1952.506 922.708a120.6 120.6 0 0 1-7.514 15.068c-1.592 2.631-3.3 5.047-4.864 7.156l-.148.2c-3.079 4.141-7.786 5.282-7.64 6.321.294 2.083-4.969 7.082-13.646 9.3-10.068 2.573-21.736 3.811-24.685.407-.986-1.143-1.315-3.245-1.205-5.857.216-5.5 7.143-27.667 7.143-27.667 11.851-35.863 45.787-35.863 45.787-35.863s-.665 8.591 7.665 11.573c.012.016 1.958 12.609-.893 19.362z" class="cls-7" transform="translate(-1892.784 -866.744)"/>
            <path id="Path_1948" d="M2346.855 1213.6a57.782 57.782 0 0 1 6.494 2.676c1.4.875 4.615 5.279 4.977 6.823s.787 6.081.523 6.84-4.165-2.151-5.032-4.891-3.095-3.477-3.01-3.329 1.226 3.655.985 3.806-1.279.413-2.219-1.544-2.8-3.388-2.453-5.411a16.429 16.429 0 0 0-.265-4.97z" class="cls-6" transform="translate(-2267.202 -1132.118)"/>
            <path id="Path_1949" d="M2044.416 1053.356c.294 2.083-5.137 6.792-13.814 9.009-7.238-14.4 6.524-47.363 6.524-47.363l14.909 31.543c-3.146 4.248-7.767 5.755-7.619 6.811z" class="cls-4" transform="translate(-2004.691 -968.358)"/>
            <path id="Path_1950" d="M2130.93 1061.423c-1.592 2.631-3.3 5.047-4.864 7.156l-.148.2a12.04 12.04 0 0 1-5.1-3.807c-2.348-3.316-2.542-23.25-2.542-23.25s9.616 11.878 12.654 19.701z" class="cls-4" transform="translate(-2078.722 -990.392)"/>
            <path id="Path_1951" d="M2111.372 967.325s-23.253-6.509-35.188-9.357c1.052-14.082 4.5-56.656-17.187-39.614 0 0-1.638 45.627 8.869 54.868 0 0 33.731.715 40.154.321a9.818 9.818 0 0 0 2.356-1.629 6.42 6.42 0 0 0 .996-4.589z" class="cls-7" transform="translate(-2029.764 -885.396)"/>
        </g>
        <g id="Group_852" transform="translate(986.403 775.326)">
            <path id="Path_1952" d="M1404.8 1467l.858-.077a13.827 13.827 0 0 0-5.055-9.741 15.923 15.923 0 0 1-4.385-6.154s5.585-6.515.344-10.654c0 0-3.828-2.318-6.949-2.13 0 0 4.422 7.416 2.992 8.154s-4.332-8.619-4.332-8.619-8.711-.845-11.513.5c0 0 7.447 6.094 5.878 6.457s-9.612-5.619-9.612-5.619-8.107 1.38-7.675 6.325 3.226 6.473 4.453 6.341 8.41-2.873 8.566-1.867-4.167 4.294-7.194 4.448c0 0 5.716 6.3 9.514 4.484s4.123-4.7 6.491-5.784 4.389-1.079 3.412.024-5.263 2.175-6.617 4.571-2.569 4.011 1.361 3.419 10.319-3.467 10.6-6.76l.035-.412a1.587 1.587 0 0 1-.035.412c.82.146 2.523 1.655 3.753 2.837.19.207.469.485.87.856.15.151.275.28.369.376 2.5 2.733 3.871 8.613 3.871 8.613z" class="cls-8" transform="translate(-1358.661 -1405.644)"/>
            <g id="Group_850" transform="translate(51.248 14.181)">
                <path id="Path_1953" d="M1625.248 1359.677s-8.884-4.975-4.738-11.727c0 0 3.317-4.146 6.87-5.212 0 0-1.9 10.068 0 10.305s1.3-11.371 1.3-11.371 9.358-4.5 13.029-4.146c0 0-5.8 9.831-3.909 9.594s8.41-10.187 8.41-10.187 9.595-1.777 11.134 3.909-.948 8.529-2.369 8.884-10.542.237-10.306 1.421 6.4 3.08 9.832 2.014c0 0-3.79 9.357-8.765 8.884s-6.515-3.554-9.595-3.79-5.33.592-3.79 1.421 6.752.272 9.239 2.386 4.5 3.418-.118 4.365-12.911.355-14.57-3.2z" class="cls-9" transform="translate(-1619.408 -1336.672)"/>
                <path id="Path_1954" d="M1658.364 1370.583s-24.875 8.055-27.718 17.057a18.9 18.9 0 0 1-2.369 8.647 16.405 16.405 0 0 0-1.649 12.916l.987-.265s-.862-7.035.765-11.11c.067-.15.164-.367.285-.631.295-.577.493-1 .619-1.31.887-1.82 2.167-4.2 3.021-4.694-.005.001-5.568-7.817 26.059-20.61z" class="cls-8" transform="translate(-1624.806 -1364.634)"/>
            </g>
            <g id="Group_851">
                <path id="Path_1955" d="M1370.219 1286.157s11.711-6.558 6.246-15.458c0 0-4.372-5.465-9.056-6.87 0 0 2.5 13.272 0 13.584s-1.718-14.989-1.718-14.989-12.335-5.933-17.176-5.465c0 0 7.651 12.96 5.153 12.647s-11.086-13.428-11.086-13.428-12.647-2.342-14.677 5.153 1.249 11.242 3.123 11.71 13.9.312 13.584 1.874-8.432 4.06-12.96 2.654c0 0 5 12.335 11.555 11.711s8.588-4.684 12.647-5 7.026.781 5 1.874-8.9.358-12.179 3.146-5.933 4.505.156 5.754 17.019.468 19.205-4.216z" class="cls-9" transform="translate(-1327.264 -1255.831)"/>
                <path id="Path_1956" d="M1403.509 1334.413a24.91 24.91 0 0 1-3.123-11.4c-3.747-11.867-36.537-22.484-36.537-22.484 41.689 16.863 34.351 27.168 34.351 27.168 1.124.656 2.808 3.781 3.977 6.178.167.408.43.973.822 1.739.159.347.286.63.374.828 2.147 5.371 1.01 14.645 1.01 14.645l1.3.349a21.626 21.626 0 0 0-2.174-17.023z" class="cls-8" transform="translate(-1357.431 -1292.689)"/>
            </g>
            <path id="Path_1957" d="M1443.616 1575.527a22.939 22.939 0 1 0 45.877 0z" class="cls-5" transform="translate(-1423.206 -1519.446)"/>
            <path id="Path_1958" d="M1529.691 1575.527c0 8.595 2.059 17.348 9.055 21.276 1.163.653 5.057-.054 6.334.391a22.947 22.947 0 0 0 15.39-21.667z" class="cls-10" transform="translate(-1494.182 -1519.446)"/>
            <path id="Path_1959" fill="#bed2fa" d="M1560.626 1598.465a22.355 22.355 0 0 1-2.795 0 22.938 22.938 0 0 0 22.938-22.939h-5.7c.001 11.704-3.119 21.536-14.443 22.939z" transform="translate(-1517.276 -1519.446)"/>
            <path id="Path_1960" d="M1441.808 1699.646h46.512a2.831 2.831 0 0 0-2.831-2.831h-40.851a2.83 2.83 0 0 0-2.83 2.831z" class="cls-5" transform="translate(-1421.715 -1619.458)"/>
            <path id="Path_1961" d="M1566.041 1699.646h24.719a2.831 2.831 0 0 0-2.831-2.831h-19.059a2.83 2.83 0 0 0-2.829 2.831z" class="cls-10" transform="translate(-1524.155 -1619.458)"/>
            <path id="Rectangle_2067" d="M0 0H47.154V0.704H0z" class="cls-12" transform="rotate(180 33.521 28.392)"/>
        </g>
        <g id="Group_855" transform="translate(1086.969 793.01)">
            <path id="Rectangle_2068" d="M7.852 0h44.056a7.851 7.851 0 0 1 7.851 7.851 7.851 7.851 0 0 1-7.851 7.849H7.851A7.851 7.851 0 0 1 0 7.852 7.852 7.852 0 0 1 7.852 0z" class="cls-10" transform="translate(.626)"/>
            <path id="Path_1962" d="M1963.878 1417.026v1.633a3.377 3.377 0 0 1-3.367 3.367h-53.026a3.377 3.377 0 0 1-3.367-3.367v-1.768h58.794a3.532 3.532 0 0 1 .966.135z" class="cls-5" transform="translate(-1903.493 -1406.322)"/>
            <g id="Group_853" transform="translate(0 15.621)">
                <path id="Path_1963" d="M1913.943 1445.776l-2.39 9.054-9.951 37.682h-1.047l5.752-31.263c.005-.031.014-.062.02-.1l2.845-15.462z" class="cls-9" transform="translate(-1900.552 -1445.695)"/>
            </g>
            <path id="Path_1964" d="M1941.071 1445.776l-2.39 9.054c-.137.067-4.489 2.317-5.227 6.324l2.845-15.462z" class="cls-13" transform="translate(-1927.68 -1430.073)"/>
            <g id="Group_854" transform="translate(46.994 15.621)">
                <path id="Path_1965" d="M2181.837 1492.515h-1.047l-8.108-30.7v-.006l-1.844-6.98-2.39-9.054 4.775-.081 1.627 8.841 1.218 6.621c.005.033.014.064.019.1z" class="cls-9" transform="translate(-2168.446 -1445.695)"/>
            </g>
            <path id="Path_1966" d="M2152.5 1513.577c-.006 0-.011 0-.017-.011-.02-.04-.014-.031.017.011z" class="cls-13" transform="translate(-2108.281 -1486.018)"/>
            <path id="Path_1967" d="M2174.849 1454.536a13.177 13.177 0 0 0-2.166 7.278l-1.844-6.98-2.39-9.054 4.775-.081z" class="cls-13" transform="translate(-2121.452 -1430.073)"/>
        </g>
        <path id="Rectangle_2142" d="M.491 0h369.234a.491.491 0 0 1 .491.491.491.491 0 0 1-.491.491H.491A.491.491 0 0 1 0 .491.491.491 0 0 1 .491 0z" class="cls-12" transform="translate(913.889 855.452)"/>
    </g>
</svg>
