<?xml version="1.0" encoding="utf-8"?>
<!-- Generator: Adobe Illustrator 20.0.0, SVG Export Plug-In . SVG Version: 6.00 Build 0)  -->
<svg version="1.1" id="Layer_1" xmlns="http://www.w3.org/2000/svg" xmlns:xlink="http://www.w3.org/1999/xlink" x="0px" y="0px"
	 viewBox="0 0 16.3 20" style="enable-background:new 0 0 16.3 20;" xml:space="preserve">
<style type="text/css">
	.st0{fill:#41A03A;}
</style>
<path class="st0" d="M16.3,19.3c0-0.3-0.3-0.6-0.7-0.6h-1.3V2.9c0-0.4-0.3-0.6-0.6-0.6H8.9V0.6C8.9,0.3,8.6,0,8.2,0H3.7
	C3.4,0,3.1,0.3,3.1,0.6l0,0v1.6H2.6C2.2,2.2,2,2.5,2,2.8v15.8H0.7C0.3,18.7,0,19,0,19.3C0,19.7,0.3,20,0.6,20l0,0h4.6
	c0.2,0,0.3-0.1,0.3-0.3V16H5.3c-0.3,0-0.6-0.3-0.7-0.6c0-0.4,0.3-0.7,0.6-0.7l0,0H11c0.3,0,0.6,0.3,0.7,0.6c0,0.4-0.3,0.7-0.6,0.7
	l0,0h-0.3v3.7c0,0.2,0.1,0.3,0.3,0.3h4.6C16,20,16.3,19.7,16.3,19.3L16.3,19.3z M5.8,4.8h0.7c0.4,0,0.6,0.3,0.6,0.6
	C7.1,5.8,6.8,6,6.5,6H5.8C5.4,6,5.2,5.7,5.2,5.4C5.2,5.1,5.5,4.8,5.8,4.8z M6.6,13.3H5.8c-0.4,0-0.6-0.3-0.6-0.6s0.3-0.6,0.6-0.6
	h0.7c0.4,0,0.6,0.3,0.6,0.6C7.2,13.1,6.9,13.3,6.6,13.3z M6.6,10.9L6.6,10.9H5.8c-0.4,0-0.6-0.3-0.6-0.6s0.3-0.6,0.6-0.6l0,0h0.7
	c0.4,0,0.6,0.3,0.6,0.6C7.2,10.6,6.9,10.9,6.6,10.9z M6.6,8.5L6.6,8.5H5.8c-0.4,0-0.6-0.3-0.6-0.6c0-0.4,0.3-0.6,0.6-0.6l0,0h0.7
	c0.4,0,0.6,0.3,0.6,0.6C7.2,8.2,6.9,8.5,6.6,8.5z M9.7,4.8h0.7c0.4,0,0.6,0.3,0.6,0.6C11,5.8,10.7,6,10.4,6H9.7C9.3,6.1,9,5.8,9,5.4
	S9.3,4.8,9.7,4.8z M10.4,13.3H9.7c-0.4,0-0.6-0.3-0.6-0.6C9,12.3,9.3,12,9.7,12h0.7c0.4,0,0.6,0.3,0.6,0.6
	C11,13.1,10.8,13.3,10.4,13.3z M10.4,10.9L10.4,10.9H9.7c-0.4,0-0.6-0.3-0.6-0.6s0.3-0.6,0.6-0.6h0.7c0.4,0,0.6,0.3,0.6,0.6
	C11,10.6,10.8,10.9,10.4,10.9z M10.4,8.5L10.4,8.5H9.7C9.3,8.5,9,8.2,9,7.9c0-0.4,0.3-0.6,0.6-0.6h0.7c0.4,0,0.6,0.3,0.6,0.6
	C11,8.2,10.8,8.5,10.4,8.5z"/>
<path class="st0" d="M6.9,19.7v-3.4C6.9,16.1,7,16,7.2,16h1.9c0.2,0,0.3,0.1,0.3,0.3v3.4c0,0.2-0.1,0.3-0.3,0.3H7.2
	C7,20,6.9,19.8,6.9,19.7L6.9,19.7z"/>
</svg>
