<svg xmlns="http://www.w3.org/2000/svg" width="55.457" height="60.367" viewBox="0 0 55.457 60.367">
    <defs>
        <style>
            .cls-3{fill:#f3f3f1}.cls-5{fill:#d5dbe1}
        </style>
    </defs>
    <g id="business-and-finance" transform="translate(-2 -.583)">
        <g id="Group_3345" transform="translate(2.503 .583)">
            <path id="Path_2004" fill="#efefef" d="M46.193 54.741c-11.987 0-20.219 6.209-26 6.209S2.29 57.63 2.29 31.057 18.61.583 24.963.583c29.752 0 42.46 54.158 21.23 54.158z" transform="translate(-2.29 -.583)"/>
        </g>
        <g id="Group_3346" transform="translate(45.326 4.772)">
            <path id="Path_2005" fill="#a4afc1" d="M29.6 8.2a2.6 2.6 0 1 1 2.6-2.6 2.6 2.6 0 0 1-2.6 2.6zm0-3.466a.867.867 0 1 0 .867.867.867.867 0 0 0-.867-.868z" transform="translate(-27 -3)"/>
        </g>
        <g id="Group_3347" transform="translate(11.965 35.533)">
            <path id="Path_2006" d="M15.549 35.481H7.75V21.617a.867.867 0 0 1 .867-.867h6.066a.867.867 0 0 1 .867.867z" class="cls-3" transform="translate(-7.75 -20.75)"/>
        </g>
        <g id="Group_3348" transform="translate(25.829 28.601)">
            <path id="Path_2007" d="M23.549 38.413h-7.8v-20.8a.867.867 0 0 1 .867-.867h6.066a.867.867 0 0 1 .867.867z" class="cls-3" transform="translate(-15.75 -16.75)"/>
        </g>
        <g id="Group_3349" transform="translate(39.694 21.669)">
            <path id="Path_2008" fill="#3d56b9" d="M31.549 41.345h-7.8V13.617a.867.867 0 0 1 .867-.867h6.066a.867.867 0 0 1 .867.867z" transform="translate(-23.75 -12.75)"/>
        </g>
        <g id="Group_3350" transform="translate(11.965 35.533)">
            <path id="Path_2009" d="M12.516 20.75h-3.9a.867.867 0 0 0-.867.867v13.864h3.9V21.617a.867.867 0 0 1 .867-.867z" class="cls-5" transform="translate(-7.75 -20.75)"/>
        </g>
        <g id="Group_3351" transform="translate(25.829 28.601)">
            <path id="Path_2010" d="M20.516 16.75h-3.9a.867.867 0 0 0-.867.867v20.8h3.9v-20.8a.867.867 0 0 1 .867-.867z" class="cls-5" transform="translate(-15.75 -16.75)"/>
        </g>
        <g id="Group_3352" transform="translate(39.694 21.669)">
            <path id="Path_2011" fill="#2b3c81" d="M28.516 12.75h-3.9a.867.867 0 0 0-.867.867v27.728h3.9V13.617a.867.867 0 0 1 .867-.867z" transform="translate(-23.75 -12.75)"/>
        </g>
        <g id="Group_3353" transform="translate(12.776 12.085)">
            <path id="Path_2012" d="M0 0h20.833v2.6H0z" transform="rotate(-45 17.78 7.364)"/>
        </g>
        <g id="Group_3354" transform="translate(21.063 11.704)">
            <path id="Path_2013" d="M21.665 15.665h-2.6V9.6H13V7h7.365a1.3 1.3 0 0 1 1.3 1.3z" transform="translate(-13 -7)"/>
        </g>
        <g id="Group_3355" transform="translate(2 48.964)">
            <path id="Path_2014" d="M2 28.5h55.457v2.6H2z" transform="translate(-2 -28.5)"/>
        </g>
        <g id="Group_3356" transform="translate(10.665 34.234)">
            <path id="Path_2015" d="M16.1 37.33H8.3a1.3 1.3 0 0 1-1.3-1.3V22.166A2.169 2.169 0 0 1 9.166 20h6.066a2.169 2.169 0 0 1 2.168 2.166v13.865a1.3 1.3 0 0 1-1.3 1.299zm-6.5-2.6h5.2V22.6H9.6z" transform="translate(-7 -20)"/>
        </g>
        <g id="Group_3357" transform="translate(24.53 27.301)">
            <path id="Path_2016" d="M24.1 40.263h-7.8a1.3 1.3 0 0 1-1.3-1.3v-20.8A2.169 2.169 0 0 1 17.166 16h6.066a2.169 2.169 0 0 1 2.168 2.166v20.8a1.3 1.3 0 0 1-1.3 1.297zm-6.5-2.6h5.2V18.6h-5.2z" transform="translate(-15 -16)"/>
        </g>
        <g id="Group_3358" transform="translate(38.394 20.369)">
            <path id="Path_2017" d="M32.1 43.195h-7.8A1.3 1.3 0 0 1 23 41.9V14.166A2.169 2.169 0 0 1 25.166 12h6.066a2.169 2.169 0 0 1 2.168 2.166V41.9a1.3 1.3 0 0 1-1.3 1.295zm-6.5-2.6h5.2v-26h-5.2z" transform="translate(-23 -12)"/>
        </g>
    </g>
</svg>
