<svg xmlns="http://www.w3.org/2000/svg" width="66.67" height="60.043" viewBox="0 0 66.67 60.043">
    <defs>
        <style>
            .cls-2{fill:#a4afc1}.cls-3{fill:#3d56b9}.cls-5{fill:#2b3c81}
        </style>
    </defs>
    <g id="christmas-present" transform="translate(-.134 -1.91)">
        <g id="BG" transform="translate(.134 1.91)">
            <g id="Group_3322">
                <path id="Path_1983" fill="#efefef" d="M65.01 36.326C57.953 25.521 58.7 14.445 55.3 9.237S41.763-4.949 17.811 10.7-.049 43.349 3.694 49.075C21.211 75.892 77.51 55.462 65.01 36.326z" transform="translate(-.134 -1.91)"/>
            </g>
        </g>
        <g id="effect" transform="translate(4.37 4.877)">
            <g id="Group_3326" transform="translate(0 4.857)">
                <g id="Group_3323" transform="translate(7.587 .33)">
                    <path id="Path_1984" d="M0 0h3.732v1.866H0z" class="cls-2" transform="rotate(-45 3.184 1.319)"/>
                </g>
                <g id="Group_3324" transform="translate(0 7.913)">
                    <path id="Path_1985" d="M0 0h3.732v1.866H0z" class="cls-2" transform="rotate(-45 3.184 1.319)"/>
                </g>
                <g id="Group_3325" transform="translate(.002)">
                    <path id="Path_1986" d="M0 0h1.866v3.732H0z" class="cls-2" transform="rotate(-45 1.592 .66)"/>
                </g>
            </g>
            <g id="Group_3327" transform="translate(41.693)">
                <path id="Path_1987" d="M27.549 9.1a2.8 2.8 0 1 1 2.8-2.8 2.8 2.8 0 0 1-2.8 2.8zm0-3.732a.933.933 0 1 0 .933.933.934.934 0 0 0-.933-.935z" class="cls-2" transform="translate(-24.75 -3.5)"/>
            </g>
        </g>
        <g id="color" transform="translate(12.478 10.8)">
            <g id="Group_3328" transform="translate(0 9.563)">
                <path id="Path_1988" d="M46.866 22.062H8.616A1.867 1.867 0 0 1 6.75 20.2v-6.534A1.867 1.867 0 0 1 8.616 11.8h38.25a1.867 1.867 0 0 1 1.866 1.866V20.2a1.867 1.867 0 0 1-1.866 1.862z" class="cls-3" transform="translate(-6.75 -11.8)"/>
            </g>
            <g id="Group_3329" transform="translate(3.732 19.79)">
                <path id="Path_1989" fill="#f3f3f1" d="M8.75 17.281v18.694a3.743 3.743 0 0 0 3.732 3.732h27.055a3.743 3.743 0 0 0 3.732-3.732V17.281z" transform="translate(-8.75 -17.281)"/>
            </g>
            <g id="Group_3330" transform="translate(12.127)">
                <path id="Path_1990" d="M19.3 7.713c1.383 1.384 2.81 7.825 2.81 7.825s-6.441-1.427-7.825-2.81A3.546 3.546 0 0 1 19.3 7.713z" class="cls-3" transform="translate(-13.249 -6.675)"/>
            </g>
            <g id="Group_3331" transform="translate(20.991)">
                <path id="Path_1991" d="M20.81 7.713C19.427 9.1 18 15.538 18 15.538s6.441-1.427 7.825-2.81a3.546 3.546 0 0 0-5.015-5.015z" class="cls-3" transform="translate(-18 -6.675)"/>
            </g>
            <g id="Group_3332" transform="translate(16.793 19.79)">
                <path id="Path_1992" d="M15.75 17.316v14.927l4.2-2.8 4.2 2.8V17.281z" class="cls-3" transform="translate(-15.75 -17.281)"/>
            </g>
            <g id="Group_3333" transform="translate(0 9.563)">
                <path id="Path_1993" d="M10.948 20.2v-6.534a1.867 1.867 0 0 1 1.866-1.866h-4.2a1.867 1.867 0 0 0-1.864 1.866V20.2a1.867 1.867 0 0 0 1.866 1.866h4.2a1.867 1.867 0 0 1-1.868-1.866z" class="cls-5" transform="translate(-6.75 -11.8)"/>
            </g>
            <g id="Group_3334" transform="translate(3.732 19.79)">
                <path id="Path_1994" fill="#d5dbe1" d="M12.948 35.975V17.281H8.75v18.694a3.743 3.743 0 0 0 3.732 3.732h4.2a3.743 3.743 0 0 1-3.734-3.732z" transform="translate(-8.75 -17.281)"/>
            </g>
            <g id="Group_3335" transform="translate(12.129 .007)">
                <path id="Path_1995" fill="#617ef3" d="M18.487 12.723a3.545 3.545 0 0 1 0-5.014 3.471 3.471 0 0 1 .409-.334 3.538 3.538 0 0 0-4.607 5.348c1.384 1.384 7.824 2.812 7.824 2.812s-.11-.5-.3-1.233a9.9 9.9 0 0 1-3.326-1.579z" transform="translate(-13.25 -6.678)"/>
            </g>
            <g id="Group_3336" transform="translate(20.991 .007)">
                <path id="Path_1996" fill="#499ef6" d="M25.008 7.71a3.471 3.471 0 0 1 .409-.334 3.538 3.538 0 0 0-4.607.334C19.427 9.094 18 15.535 18 15.535s2.334-.519 4.495-1.233c.489-1.937 1.511-5.588 2.513-6.592z" transform="translate(-18 -6.678)"/>
            </g>
            <g id="Group_3339" transform="translate(16.793 19.79)">
                <g id="Group_3337">
                    <path id="Path_1997" d="M19.948 17.316l4.2-.017v-.019l-8.4.035v14.928l4.2-2.8z" class="cls-5" transform="translate(-15.75 -17.281)"/>
                </g>
                <g id="Group_3338" transform="translate(6.297 12.164)">
                    <path id="Path_1998" d="M21.224 26.6v-2.8l-2.1 1.4z" class="cls-5" transform="translate(-19.125 -23.8)"/>
                </g>
            </g>
        </g>
        <g id="_x31_.5" transform="translate(11.079 9.448)">
            <g id="Group_3340" transform="translate(0 9.515)">
                <path id="Path_1999" d="M47.516 24.111H9.265A3.269 3.269 0 0 1 6 20.846v-6.531a3.269 3.269 0 0 1 3.265-3.265h38.25a3.269 3.269 0 0 1 3.265 3.265v6.531a3.269 3.269 0 0 1-3.264 3.265zM9.265 13.849a.467.467 0 0 0-.466.466v6.531a.467.467 0 0 0 .466.466h38.25a.467.467 0 0 0 .466-.466v-6.531a.467.467 0 0 0-.466-.466z" transform="translate(-6 -11.05)"/>
            </g>
            <g id="Group_3341" transform="translate(3.732 21.644)">
                <path id="Path_2000" d="M40.186 40.873H13.131A5.137 5.137 0 0 1 8 35.742V17.55h2.8v18.192a2.336 2.336 0 0 0 2.332 2.332h27.054a2.336 2.336 0 0 0 2.332-2.332V17.55h2.8v18.192a5.137 5.137 0 0 1-5.132 5.131z" transform="translate(-8 -17.55)"/>
            </g>
            <g id="Group_3342" transform="translate(12.128)">
                <path id="Path_2001" d="M22.762 17.565a1.39 1.39 0 0 1-.3-.034c-1.6-.355-6.958-1.635-8.512-3.187a4.946 4.946 0 0 1 0-6.993 5.062 5.062 0 0 1 6.991 0c1.552 1.554 2.834 6.906 3.189 8.51a1.4 1.4 0 0 1-1.366 1.7zM17.445 8.7a2.145 2.145 0 0 0-1.517 3.663c.494.493 2.64 1.258 4.917 1.881-.623-2.276-1.388-4.422-1.883-4.917a2.131 2.131 0 0 0-1.517-.627z" transform="translate(-12.5 -5.95)"/>
            </g>
            <g id="Group_3343" transform="translate(20.991 .002)">
                <path id="Path_2002" d="M18.649 17.564a1.4 1.4 0 0 1-1.366-1.7c.355-1.6 1.636-6.958 3.189-8.51a5.062 5.062 0 0 1 6.991 0 4.946 4.946 0 0 1 0 6.993c-1.552 1.552-6.907 2.832-8.512 3.187a1.512 1.512 0 0 1-.3.032zM23.967 8.7a2.131 2.131 0 0 0-1.515.627c-.494.494-1.259 2.64-1.883 4.917 2.276-.623 4.422-1.39 4.917-1.883A2.146 2.146 0 0 0 23.967 8.7z" transform="translate(-17.25 -5.951)"/>
            </g>
            <g id="Group_3344" transform="translate(16.793 21.644)">
                <path id="Path_2003" d="M24.8 33.41a1.393 1.393 0 0 1-.776-.235L20.6 30.893l-3.422 2.282A1.4 1.4 0 0 1 15 32.011V17.55h2.8V29.4l2.023-1.349a1.4 1.4 0 0 1 1.552 0L23.4 29.4V17.55h2.8v14.461a1.4 1.4 0 0 1-1.4 1.4z" transform="translate(-15 -17.55)"/>
            </g>
        </g>
    </g>
</svg>
