<?xml version="1.0" encoding="utf-8"?>
<!-- Generator: Adobe Illustrator 20.0.0, SVG Export Plug-In . SVG Version: 6.00 Build 0)  -->
<svg version="1.1" id="seaplane" xmlns="http://www.w3.org/2000/svg" xmlns:xlink="http://www.w3.org/1999/xlink" x="0px" y="0px"
	 viewBox="0 0 21.8 19.9" style="enable-background:new 0 0 21.8 19.9;" xml:space="preserve">
<path id="Path_29" d="M14.1,6.6H16L12.8,0H8.3v7.3l3.5-0.5C12.6,6.7,13.4,6.6,14.1,6.6L14.1,6.6z"/>
<path id="Path_30" d="M20.6,16.2l-0.3-0.1c-1.2-0.3-2.4-0.5-3.6-0.5v-1.5c-0.2,0-1.3,0-1.3,0v1.5h-4.7v-1.7l-1.3-0.1v1.8H4.5
	c-1,0-1.9,0.8-1.9,1.8c0,1,0.8,1.9,1.8,1.9l12.2,0.6h0c1.3,0,2.6-0.2,3.9-0.6c0.7-0.2,1.2-0.8,1.2-1.6C21.8,17,21.3,16.4,20.6,16.2z
	"/>
<path id="Path_31" d="M2.9,5.1H0v3.5l4.9-0.7L2.9,5.1z"/>
<path id="Path_32" d="M20.5,6.4v3.6h-2.1l-1.1-1.5c-0.2-0.3-0.6-0.5-1-0.5h-2.2c-0.7,0-1.4,0.1-2.1,0.2L0,9.8v0.4
	c0.1,0.9,0.8,1.6,1.7,1.7l11.3,1H16c1.5,0,3.1-0.2,4.6-0.7v2.7h1.3V6.4H20.5z M12.8,10.7h-1.3V9.4h1.3L12.8,10.7z M15.4,10.7h-1.3
	V9.4h1.3L15.4,10.7z"/>
</svg>
