<svg xmlns="http://www.w3.org/2000/svg" id="seaplane" width="21.808" height="19.909" viewBox="0 0 21.808 19.909">
    <defs>
        <style>
            .cls-1{fill:#2b3c81}
        </style>
    </defs>
    <path id="Path_29" d="M200.77 19.131h1.919l-3.218-6.631H195v7.333l3.51-.532a15.125 15.125 0 0 1 2.26-.17z" class="cls-1" transform="translate(-186.662 -12.5)"/>
    <path id="Path_30" d="M78 350.481l-.313-.087a13.565 13.565 0 0 0-3.575-.491v-1.538c-.234.01-1.283.016-1.283.016v1.519h-4.7v-1.715l-1.283-.108v1.823h-4.891a1.876 1.876 0 1 0-.093 3.751l12.247.559h.03a13.549 13.549 0 0 0 3.9-.571 1.652 1.652 0 0 0 1.207-1.575A1.669 1.669 0 0 0 78 350.481z" class="cls-1" transform="translate(-57.434 -334.303)"/>
    <path id="Path_31" d="M2.9 137.5H0v3.466l4.869-.738z" class="cls-1" transform="translate(0 -132.369)"/>
    <path id="Path_32" d="M20.525 167.5v3.571h-2.092l-1.076-1.549A1.234 1.234 0 0 0 16.34 169h-2.232a13.79 13.79 0 0 0-2.06.155L0 170.981v.4a1.859 1.859 0 0 0 1.732 1.652l11.314.953h2.922a14.376 14.376 0 0 0 4.554-.735v2.667h1.283V167.5zm-7.7 4.31h-1.28v-1.232h1.283zm2.566 0h-1.28v-1.232h1.283z" class="cls-1" transform="translate(0 -161.137)"/>
</svg>
