<svg xmlns="http://www.w3.org/2000/svg" width="54.635" height="60.014" viewBox="0 0 54.635 60.014">
    <defs>
        <style>
            .cls-4{fill:#3d56b9}.cls-6{fill:#2b3c81}
        </style>
    </defs>
    <g id="sign-in" transform="translate(-2.29 -.584)">
        <path id="Path_1968" fill="#efefef" d="M12.778 6.757C24.7 6.757 32.879.584 38.622.584s17.8 3.3 17.8 29.719S40.2 60.6 33.884 60.6C4.306 60.6-8.329 6.757 12.778 6.757z"/>
        <path id="Path_1969" fill="#a4afc1" d="M33.584 8.169a2.584 2.584 0 1 1 2.584-2.584 2.588 2.588 0 0 1-2.584 2.584zm0-3.446a.861.861 0 1 0 .861.861.863.863 0 0 0-.861-.861z" transform="translate(20.756 1.747)"/>
        <path id="Path_1970" fill="#f3f3f1" d="M42.07 40.54H10.2a3.445 3.445 0 0 1-3.45-3.446V11.25h38.766v25.844a3.445 3.445 0 0 1-3.446 3.446z" transform="translate(3.224 7.711)"/>
        <g id="Group_3318" transform="translate(9.974 12.931)">
            <path id="Path_1971" d="M6.75 13.78h38.766V11.2a3.445 3.445 0 0 0-3.446-3.45H10.2a3.445 3.445 0 0 0-3.45 3.45z" class="cls-4" transform="translate(-6.75 -7.75)"/>
            <circle id="Ellipse_532" cx="2.154" cy="2.154" r="2.154" fill="#2fdf84" transform="translate(10.338 13.784)"/>
            <path id="Path_1972" d="M21.949 26.35V24.2a3.445 3.445 0 0 0-3.449-3.45h-4.3a3.445 3.445 0 0 0-3.45 3.45v2.15z" class="cls-4" transform="translate(-3.858 1.648)"/>
        </g>
        <path id="Path_1973" d="M14.073 7.75H10.2a3.445 3.445 0 0 0-3.45 3.45v2.58h3.877V11.2a3.445 3.445 0 0 1 3.446-3.45z" class="cls-6" transform="translate(3.224 5.181)"/>
        <path id="Path_1974" d="M16.627 17.9a2.107 2.107 0 0 1 .215-.9 2.154 2.154 0 1 0 0 1.813 2.107 2.107 0 0 1-.215-.913z" class="cls-4" transform="translate(7.562 10.964)"/>
        <path id="Path_1975" d="M18.073 20.75H14.2a3.445 3.445 0 0 0-3.45 3.45v2.15h3.877V24.2a3.445 3.445 0 0 1 3.446-3.45z" class="cls-6" transform="translate(6.116 14.579)"/>
        <path id="Path_1976" fill="#d5dbe1" d="M10.627 37.094V11.25H6.75v25.844a3.445 3.445 0 0 0 3.45 3.446h3.877a3.445 3.445 0 0 1-3.45-3.446z" transform="translate(3.224 7.711)"/>
        <path id="Path_1977" d="M15.446 21.892a3.446 3.446 0 1 1 3.446-3.446 3.449 3.449 0 0 1-3.446 3.446zm0-4.307a.861.861 0 1 0 .861.861.863.863 0 0 0-.861-.862z" transform="translate(7.02 10.422)"/>
        <path id="Path_1978" d="M23.784 26.892H21.2v-2.154a2.157 2.157 0 0 0-2.154-2.154h-4.308a2.157 2.157 0 0 0-2.154 2.154v2.154H10v-2.154A4.742 4.742 0 0 1 14.738 20h4.307a4.742 4.742 0 0 1 4.738 4.738z" transform="translate(5.574 14.037)"/>
        <path id="Path_1979" d="M25.654 26.368l-1.962-1.682 2.7-3.156-2.7-3.156 1.962-1.682 3.425 4a1.293 1.293 0 0 1 0 1.683z" transform="translate(15.472 11.645)"/>
        <path id="Path_1980" d="M20 18.75h11.2v2.584H20z" transform="translate(12.803 13.133)"/>
        <path id="Path_1981" d="M42.613 44.9H10.738A4.742 4.742 0 0 1 6 40.167V11.738A4.742 4.742 0 0 1 10.738 7h31.875a4.742 4.742 0 0 1 4.738 4.738v28.429a4.742 4.742 0 0 1-4.738 4.733zM10.738 9.584a2.157 2.157 0 0 0-2.154 2.154v28.429a2.157 2.157 0 0 0 2.154 2.154h31.875a2.157 2.157 0 0 0 2.154-2.154V11.738a2.157 2.157 0 0 0-2.154-2.154z" transform="translate(2.682 4.638)"/>
        <path id="Path_1982" d="M6.75 10.5h38.766v2.584H6.75z" transform="translate(3.224 7.169)"/>
    </g>
</svg>
