<?xml version="1.0" encoding="utf-8"?>
<!-- Generator: Adobe Illustrator 20.0.0, SVG Export Plug-In . SVG Version: 6.00 Build 0)  -->
<svg version="1.1" id="travel" xmlns="http://www.w3.org/2000/svg" xmlns:xlink="http://www.w3.org/1999/xlink" x="0px" y="0px"
	 viewBox="0 0 19.2 20.4" style="enable-background:new 0 0 19.2 20.4;" xml:space="preserve">
<style type="text/css">
	.st0{fill:#41A03A;}
</style>
<path id="Path_8" class="st0" d="M18.7,7.9c-0.1-0.1-0.3,0-0.4,0.1c0,0.1,0,0.1,0,0.2c0.1,0.4,0.2,0.8,0.3,1.3
	c0,0.1,0.1,0.2,0.3,0.2h0c0.2,0,0.3-0.2,0.2-0.3C19.1,9,19,8.6,18.9,8.1C18.9,8,18.8,8,18.7,7.9L18.7,7.9z"/>
<path id="Path_9" class="st0" d="M17.1,5.2C17,5.3,16.9,5.4,17,5.6c0.3,0.4,0.5,0.7,0.7,1.1c0.1,0.1,0.2,0.2,0.4,0.1
	c0.1-0.1,0.2-0.2,0.1-0.4c0,0,0,0,0,0C18,6,17.7,5.6,17.5,5.2C17.4,5.1,17.2,5.1,17.1,5.2C17.1,5.2,17.1,5.2,17.1,5.2L17.1,5.2z"/>
<path id="Path_10" class="st0" d="M13.8,8c-0.1,0.1-0.3,0.3-0.3,0.4L13.3,9c-0.1,0.3,0,0.6,0.3,0.8c0.4,0.3,0.6,0.8,0.5,1.3
	l-0.3,1.2c-0.1,0.2-0.2,0.5-0.3,0.6l-0.2,0.2c-0.2,0.2-0.3,0.4-0.2,0.6l0.1,1.3c2.2-1.8,2.7-5.1,1.1-7.4L13.8,8z"/>
<path id="Path_11" class="st0" d="M13.1,12.6c0.1-0.1,0.2-0.2,0.2-0.4l0.3-1.2c0.1-0.3,0-0.6-0.3-0.8c-0.4-0.3-0.6-0.8-0.5-1.3
	L13,8.3C13,8,13.2,7.8,13.5,7.6l0.4-0.3c-1-1.2-2.4-1.9-4-2l0.2,1.5c0.1,0.3-0.1,0.7-0.4,0.9l-1,0.6C8.7,8.4,8.6,8.5,8.6,8.7
	l0.1,0.7c0,0.1,0.1,0.2,0.2,0.3L9.7,10c0.4,0.2,0.6,0.6,0.5,0.9l-0.2,1.4c0,0.1-0.1,0.3-0.2,0.4C9.6,12.9,9.3,13,9,13
	c0,0-0.1,0-0.1,0c-0.3,0-0.6-0.2-0.7-0.5L8,12c-0.1-0.1-0.2-0.2-0.3-0.2h-1c-0.1,0-0.2,0-0.2,0.1l-0.7,0.5c-0.2,0.1-0.5,0.2-0.7,0.1
	l-0.8-0.2c0.8,3,3.8,4.7,6.8,4c0.6-0.2,1.1-0.4,1.6-0.7l-0.2-1.6c0-0.4,0.1-0.8,0.4-1L13.1,12.6z"/>
<path id="Path_12" class="st0" d="M5.4,11.9l0.7-0.5c0.1-0.1,0.3-0.2,0.5-0.2h1c0.3,0,0.6,0.2,0.8,0.5l0.3,0.5
	c0.1,0.2,0.3,0.3,0.5,0.2c0.1-0.1,0.2-0.2,0.2-0.3l0.2-1.4c0-0.2-0.1-0.3-0.2-0.4l-0.7-0.3C8.5,10,8.3,9.7,8.3,9.5L8.1,8.8
	C8.1,8.4,8.2,8.1,8.5,7.9l1-0.6C9.6,7.2,9.7,7,9.7,6.9L9.4,5.3C6.3,5.4,4,8,4.1,11.1c0,0.2,0,0.4,0.1,0.6l1,0.2
	C5.2,12,5.4,11.9,5.4,11.9z"/>
<path id="Path_13" class="st0" d="M16.1,6.3c0.1,0,0.3-0.1,0.3-0.2c0,0,0,0,0-0.1l0.4-1.3L18.1,4c0,0,0,0,0.1-0.1
	c0.1-0.2,0.1-0.5-0.1-0.6c-0.1-0.1-0.2-0.1-0.3-0.1l-1.3-0.2l-0.7-0.5l0.9-1.2c0.1-0.2,0.1-0.4-0.1-0.6l-0.3-0.2
	c-0.2-0.2-0.5-0.2-0.7,0l-1.1,1l-1.8-1.4c-0.4-0.3-1.1-0.3-1.4,0.2c-0.3,0.4-0.3,1.1,0.2,1.4l1.8,1.4l-0.7,1.3
	c-0.1,0.2-0.1,0.5,0.2,0.7L13,5.5c0.1,0.1,0.2,0.1,0.2,0.1c0,0,0,0,0.1,0c0.1,0,0.2-0.1,0.3-0.2l0.9-1.2l0.7,0.5L15.7,6
	C15.8,6.2,15.9,6.3,16.1,6.3L16.1,6.3z M13.1,1.8c-0.1,0.1-0.3,0.2-0.4,0.1s-0.2-0.3-0.1-0.4c0.1-0.1,0.3-0.2,0.4-0.1c0,0,0,0,0,0
	C13.2,1.5,13.2,1.6,13.1,1.8L13.1,1.8z M13.9,2.3c-0.1,0.1-0.3,0.2-0.4,0.1S13.3,2.1,13.4,2c0.1-0.1,0.3-0.2,0.4-0.1c0,0,0,0,0,0
	C13.9,2,14,2.2,13.9,2.3z M14.6,2.9C14.5,3,14.3,3.1,14.2,3C14,2.9,14,2.7,14.1,2.6c0.1-0.1,0.3-0.2,0.4-0.1c0,0,0,0,0,0
	C14.7,2.6,14.7,2.8,14.6,2.9z M15.3,3.5c-0.1,0.1-0.3,0.2-0.4,0.1c-0.1-0.1-0.2-0.3-0.1-0.4C15,3,15.1,3,15.3,3.1c0,0,0,0,0,0
	C15.4,3.2,15.4,3.4,15.3,3.5L15.3,3.5z"/>
<path id="Path_14" class="st0" d="M11.8,19.7C11.8,19.7,11.8,19.7,11.8,19.7c-0.5,0.1-0.9,0.2-1.3,0.2c-0.1,0-0.2,0.1-0.2,0.3
	c0,0.1,0.1,0.2,0.3,0.2c0.5,0,0.9-0.1,1.4-0.2c0.1,0,0.2-0.2,0.2-0.3C12,19.8,11.9,19.7,11.8,19.7L11.8,19.7z"/>
<path id="Path_15" class="st0" d="M17.1,16.4c0,0-0.1-0.1-0.2-0.1h0c-0.1,0-0.1,0-0.2,0.1c-0.3,0.3-0.6,0.7-0.9,1
	c-0.1,0.1-0.1,0.3,0,0.3c0.1,0.1,0.2,0.1,0.3,0c0.3-0.3,0.6-0.7,0.9-1C17.3,16.7,17.2,16.5,17.1,16.4z"/>
<path id="Path_16" class="st0" d="M19,10.6c-0.1,0-0.2,0.1-0.2,0.2c0,0,0,0,0,0c0,0.4,0,0.9-0.1,1.3c0,0.1,0.1,0.3,0.2,0.3
	c0.1,0,0.2-0.1,0.3-0.2c0.1-0.5,0.1-0.9,0.1-1.4C19.2,10.7,19.1,10.6,19,10.6C19,10.6,19,10.6,19,10.6z"/>
<path id="Path_17" class="st0" d="M8.7,19.9c-0.4,0-0.9-0.1-1.3-0.2c-0.1,0-0.3,0-0.3,0.2c0,0.1,0,0.3,0.2,0.3c0,0,0,0,0,0
	c0.4,0.1,0.9,0.2,1.4,0.2c0.1,0,0.3-0.1,0.3-0.2C9,20,8.9,19.9,8.7,19.9L8.7,19.9z"/>
<path id="Path_18" class="st0" d="M18.6,13.7c-0.1,0-0.3,0-0.3,0.2c-0.1,0.4-0.3,0.8-0.5,1.2c-0.1,0.1,0,0.3,0.1,0.3
	c0.1,0.1,0.3,0,0.3-0.1c0,0,0,0,0,0c0.2-0.4,0.4-0.8,0.5-1.3C18.7,13.9,18.7,13.7,18.6,13.7C18.6,13.7,18.6,13.7,18.6,13.7
	L18.6,13.7z"/>
<path id="Path_19" class="st0" d="M14.7,18.5c0,0-0.1,0-0.1,0c-0.4,0.2-0.7,0.4-1.1,0.6c-0.1,0.1-0.2,0.2-0.1,0.3s0.2,0.2,0.3,0.1
	c0,0,0,0,0,0c0.4-0.2,0.8-0.4,1.2-0.7c0.1-0.1,0.1-0.2,0.1-0.3C14.8,18.5,14.8,18.5,14.7,18.5L14.7,18.5z"/>
<path id="Path_20" class="st0" d="M1,13.8c-0.1-0.1-0.2-0.2-0.3-0.1c-0.1,0-0.2,0.2-0.1,0.3c0.1,0.4,0.3,0.9,0.5,1.3
	c0.1,0.1,0.2,0.2,0.3,0.1c0.1-0.1,0.1-0.2,0.1-0.3C1.3,14.6,1.1,14.2,1,13.8L1,13.8z"/>
<path id="Path_21" class="st0" d="M5.8,19.1C5.4,19,5,18.7,4.7,18.5c-0.1-0.1-0.3,0-0.3,0.1c-0.1,0.1,0,0.3,0.1,0.3
	c0.4,0.2,0.8,0.5,1.2,0.7c0,0,0.1,0,0.1,0c0.1,0,0.2-0.1,0.2-0.3C6,19.3,5.9,19.2,5.8,19.1L5.8,19.1z"/>
<path id="Path_22" class="st0" d="M2.4,16.5c0-0.1-0.1-0.1-0.2-0.1h0c-0.1,0-0.2,0.1-0.2,0.2c0,0.1,0,0.1,0.1,0.2
	c0.3,0.4,0.6,0.7,0.9,1c0.1,0.1,0.3,0.1,0.3,0c0.1-0.1,0.1-0.3,0-0.3c0,0,0,0,0,0C3,17.1,2.7,16.8,2.4,16.5z"/>
<path id="Path_23" class="st0" d="M0.4,9.3c0.1,0,0.3-0.1,0.3-0.2c0,0,0,0,0,0C0.7,8.7,0.9,8.3,1,7.8C1,7.7,1,7.6,0.9,7.5
	s-0.3,0-0.3,0.1c0,0,0,0,0,0C0.4,8.1,0.3,8.6,0.2,9C0.1,9.1,0.2,9.3,0.4,9.3C0.4,9.3,0.4,9.3,0.4,9.3L0.4,9.3z"/>
<path id="Path_24" class="st0" d="M0.6,12.1c-0.1-0.4-0.1-0.9-0.1-1.3c0-0.1-0.1-0.3-0.2-0.3c-0.1,0-0.3,0.1-0.3,0.2c0,0,0,0,0,0
	c0,0.5,0,0.9,0.1,1.4c0,0.1,0.1,0.2,0.3,0.2C0.5,12.4,0.6,12.3,0.6,12.1C0.6,12.2,0.6,12.1,0.6,12.1L0.6,12.1z"/>
<path id="Path_25" class="st0" d="M2.4,4.8c-0.1-0.1-0.3-0.1-0.3,0C1.8,5.3,1.5,5.6,1.3,6c-0.1,0.1,0,0.3,0.1,0.3
	c0.1,0.1,0.3,0,0.3-0.1c0,0,0,0,0,0c0.2-0.4,0.5-0.7,0.7-1.1C2.5,5.1,2.5,4.9,2.4,4.8z"/>
<path id="Path_26" class="st0" d="M7.5,1.5c0,0-0.1,0-0.1,0c0,0,0,0-0.1,0C6.9,1.6,6.5,1.7,6,1.9C5.9,2,5.8,2.1,5.9,2.2
	c0,0.1,0.2,0.2,0.3,0.2c0,0,0,0,0,0C6.6,2.2,7,2.1,7.5,2c0.1,0,0.2-0.2,0.2-0.3C7.6,1.6,7.6,1.5,7.5,1.5L7.5,1.5z"/>
<path id="Path_27" class="st0" d="M4.8,2.8C4.7,2.7,4.5,2.7,4.4,2.7C4,3,3.7,3.3,3.3,3.6c-0.1,0.1-0.1,0.2,0,0.3C3.4,4,3.5,4,3.6,4
	c0,0,0,0,0,0c0.3-0.3,0.7-0.5,1-0.8C4.8,3.1,4.8,2.9,4.8,2.8C4.8,2.8,4.8,2.8,4.8,2.8z"/>
<path id="Path_28" class="st0" d="M9.2,1.2C9,1.2,8.9,1.4,8.9,1.5c0,0.1,0,0.1,0.1,0.2c0,0,0.1,0.1,0.2,0.1c0.1,0,0.3,0,0.4,0
	c0.3,0,0.6,0,0.9,0c0.1,0,0.3-0.1,0.3-0.2c0-0.1-0.1-0.3-0.2-0.3c0,0,0,0,0,0C10.1,1.2,9.6,1.2,9.2,1.2z"/>
</svg>
