<svg xmlns="http://www.w3.org/2000/svg" id="travel" width="19.232" height="20.411" viewBox="0 0 19.232 20.411">
    <defs>
        <style>
            .cls-1{fill:#2b3c81}
        </style>
    </defs>
    <path id="Path_8" d="M463.451 201.15a.289.289 0 0 0-.416.335 9.064 9.064 0 0 1 .274 1.266.29.29 0 0 0 .285.248h.041a.289.289 0 0 0 .245-.327 9.634 9.634 0 0 0-.292-1.347.287.287 0 0 0-.137-.175z" class="cls-1" transform="translate(-444.705 -193.206)"/>
    <path id="Path_9" d="M431.315 135.2a.268.268 0 0 0-.062.373 9.135 9.135 0 0 1 .677 1.108.268.268 0 1 0 .476-.246 9.653 9.653 0 0 0-.716-1.173.267.267 0 0 0-.373-.063z" class="cls-1" transform="translate(-414.221 -130.016)"/>
    <path id="Path_10" d="M336.266 196.6a.774.774 0 0 0-.3.438l-.136.532a.773.773 0 0 0 .273.8 1.283 1.283 0 0 1 .46 1.286l-.275 1.228a1.275 1.275 0 0 1-.348.628l-.24.238a.769.769 0 0 0-.224.633l.146 1.342a5.539 5.539 0 0 0 1.085-7.438z" class="cls-1" transform="translate(-322.513 -188.58)"/>
    <path id="Path_11" d="M137.135 146.276a.772.772 0 0 0 .21-.38l.275-1.228a.776.776 0 0 0-.278-.778 1.277 1.277 0 0 1-.451-1.323l.136-.532a1.279 1.279 0 0 1 .5-.724l.429-.305a5.541 5.541 0 0 0-3.977-2.006l.244 1.484a.876.876 0 0 1-.384.875l-.974.638a.37.37 0 0 0-.161.38l.131.686a.373.373 0 0 0 .2.265l.684.33a.878.878 0 0 1 .482.944l-.249 1.385a.88.88 0 0 1-.161.369.868.868 0 0 1-.7.351.9.9 0 0 1-.093 0 .869.869 0 0 1-.7-.5l-.251-.54a.372.372 0 0 0-.337-.215h-1.01a.369.369 0 0 0-.213.067l-.682.479a.876.876 0 0 1-.705.135l-.784-.186a5.545 5.545 0 0 0 8.39 3.248l-.178-1.63a1.271 1.271 0 0 1 .371-1.046z" class="cls-1" transform="translate(-124.064 -133.703)"/>
    <path id="Path_12" d="M125.419 145.5l.682-.479a.871.871 0 0 1 .5-.159h1.014a.879.879 0 0 1 .794.507l.251.54a.371.371 0 0 0 .7-.091l.249-1.385a.372.372 0 0 0-.2-.4l-.684-.33a.879.879 0 0 1-.48-.625l-.131-.686a.873.873 0 0 1 .38-.9l.974-.638a.372.372 0 0 0 .163-.371l-.258-1.57a5.549 5.549 0 0 0-5.268 6.4l1.013.24a.371.371 0 0 0 .301-.053z" class="cls-1" transform="translate(-119.972 -133.622)"/>
    <path id="Path_13" d="M295.259 19.326a.429.429 0 0 0 .34-.167.253.253 0 0 0 .041-.077l.419-1.305 1.159-.738a.252.252 0 0 0 .064-.059.431.431 0 0 0-.356-.693l-1.348-.18-.674-.521.926-1.2a.408.408 0 0 0-.073-.572l-.29-.224a.564.564 0 0 0-.714.021l-1.131.984-1.789-1.382a1.029 1.029 0 1 0-1.258 1.629l1.789 1.382-.666 1.343a.564.564 0 0 0 .16.7l.29.224a.4.4 0 0 0 .248.085.413.413 0 0 0 .053 0 .4.4 0 0 0 .271-.155l.926-1.2.674.521.517 1.255a.431.431 0 0 0 .421.336zm-3.022-4.549a.3.3 0 1 1-.054-.419.3.3 0 0 1 .055.419zm.738.57a.3.3 0 1 1-.054-.419.3.3 0 0 1 .054.419zm.738.57a.3.3 0 1 1-.054-.419.3.3 0 0 1 .054.419zm.738.57a.3.3 0 1 1-.054-.419.3.3 0 0 1 .053.418z" class="cls-1" transform="translate(-279.124 -12.999)"/>
    <path id="Path_14" d="M272.884 481.527a.246.246 0 0 0-.058.007 9.11 9.11 0 0 1-1.284.214.247.247 0 0 0 .046.491 9.638 9.638 0 0 0 1.353-.226.247.247 0 0 0-.058-.486z" class="cls-1" transform="translate(-261.059 -461.83)"/>
    <path id="Path_15" d="M405.211 402.729a.245.245 0 0 0-.152-.053h-.029a.245.245 0 0 0-.165.092 9.22 9.22 0 0 1-.876.963.247.247 0 0 0 .341.357 9.7 9.7 0 0 0 .923-1.015.247.247 0 0 0-.042-.344z" class="cls-1" transform="translate(-388.078 -386.294)"/>
    <path id="Path_16" d="M471.091 264.9a.247.247 0 0 0-.247.247 9.242 9.242 0 0 1-.092 1.3.247.247 0 0 0 .488.069 9.729 9.729 0 0 0 .1-1.368.247.247 0 0 0-.249-.248z" class="cls-1" transform="translate(-452.106 -254.31)"/>
    <path id="Path_17" d="M199.174 481.747a9.128 9.128 0 0 1-1.284-.214.247.247 0 1 0-.116.479 9.625 9.625 0 0 0 1.353.226.247.247 0 0 0 .046-.491z" class="cls-1" transform="translate(-190.426 -461.828)"/>
    <path id="Path_18" d="M449.11 337.815a.247.247 0 0 0-.314.152 9.087 9.087 0 0 1-.513 1.2.247.247 0 1 0 .438.226 9.593 9.593 0 0 0 .541-1.262.247.247 0 0 0-.152-.316z" class="cls-1" transform="translate(-430.558 -324.146)"/>
    <path id="Path_19" d="M344.146 452.416a.245.245 0 0 0-.133.039 9.121 9.121 0 0 1-1.141.624.247.247 0 1 0 .205.449 9.609 9.609 0 0 0 1.2-.658.247.247 0 0 0-.134-.454z" class="cls-1" transform="translate(-329.465 -433.943)"/>
    <path id="Path_20" d="M39.948 337.963a.247.247 0 0 0-.466.161 9.592 9.592 0 0 0 .541 1.261.247.247 0 0 0 .438-.226 9.1 9.1 0 0 1-.513-1.196z" class="cls-1" transform="translate(-38.956 -324.142)"/>
    <path id="Path_21" d="M131.157 453.064a9.146 9.146 0 0 1-1.142-.625.247.247 0 0 0-.267.415 9.636 9.636 0 0 0 1.2.659.244.244 0 0 0 .1.023.247.247 0 0 0 .1-.471z" class="cls-1" transform="translate(-125.331 -433.927)"/>
    <path id="Path_22" d="M75.38 402.753a.245.245 0 0 0-.165-.092h-.029a.247.247 0 0 0-.193.4 9.7 9.7 0 0 0 .923 1.015.247.247 0 1 0 .341-.357 9.208 9.208 0 0 1-.877-.966z" class="cls-1" transform="translate(-72.936 -386.277)"/>
    <path id="Path_23" d="M31.462 193.769a.246.246 0 0 0 .289-.2 9.09 9.09 0 0 1 .336-1.257.247.247 0 1 0-.466-.161 9.6 9.6 0 0 0-.354 1.326.247.247 0 0 0 .195.292z" class="cls-1" transform="translate(-31.094 -184.464)"/>
    <path id="Path_24" d="M27.859 266.441a9.233 9.233 0 0 1-.092-1.3.247.247 0 1 0-.493 0 9.728 9.728 0 0 0 .1 1.367.247.247 0 1 0 .488-.069z" class="cls-1" transform="translate(-27.274 -254.306)"/>
    <path id="Path_25" d="M58.251 127.179a.247.247 0 0 0-.346.041 9.675 9.675 0 0 0-.77 1.136.247.247 0 1 0 .427.247 9.16 9.16 0 0 1 .731-1.078.247.247 0 0 0-.042-.346z" class="cls-1" transform="translate(-55.847 -122.329)"/>
    <path id="Path_26" d="M168.939 48.308a.245.245 0 0 0-.128-.036.25.25 0 0 0-.058.007 9.566 9.566 0 0 0-1.307.417.247.247 0 1 0 .183.458 9.088 9.088 0 0 1 1.24-.4.247.247 0 0 0 .071-.45z" class="cls-1" transform="translate(-161.404 -46.789)"/>
    <path id="Path_27" d="M105.729 77.5a.247.247 0 0 0-.341-.074 9.689 9.689 0 0 0-1.1.823.247.247 0 1 0 .323.373 9.183 9.183 0 0 1 1.041-.781.247.247 0 0 0 .077-.341z" class="cls-1" transform="translate(-100.972 -74.683)"/>
    <path id="Path_28" d="M239.768 42.056a.247.247 0 0 0-.153.431.241.241 0 0 0 .176.062q.216-.01.434-.01c.29 0 .581.014.868.041a.247.247 0 1 0 .046-.491 9.755 9.755 0 0 0-1.371-.033z" class="cls-1" transform="translate(-230.61 -40.824)"/>
</svg>
