<svg xmlns="http://www.w3.org/2000/svg" width="65.682" height="59.248" viewBox="0 0 65.682 59.248">
    <defs>
        <style>
            .cls-2{fill:#a4afc1}.cls-5{fill:#3d56b9}.cls-7{fill:#2b3c81}
        </style>
    </defs>
    <g id="verified" transform="translate(-.584 -2.29)">
        <g id="Group_3361" transform="translate(.584 2.29)">
            <path id="Path_2018" fill="#efefef" d="M7.34 50.06c0-13.043-6.756-22-6.756-28.285S4.2 2.29 33.11 2.29s33.156 17.757 33.156 24.67C66.268 59.331 7.34 73.159 7.34 50.06z" transform="translate(-.584 -2.29)"/>
        </g>
        <g id="Group_3365" transform="translate(50.213 9.113)">
            <g id="Group_3362">
                <path id="Path_2019" d="M0 0h1.886v3.771H0z" class="cls-2" transform="rotate(-45 1.61 .666)"/>
            </g>
            <g id="Group_3363" transform="translate(7.666 7.667)">
                <path id="Path_2020" d="M0 0h1.886v3.771H0z" class="cls-2" transform="rotate(-45 1.61 .666)"/>
            </g>
            <g id="Group_3364" transform="translate(7.332 .001)">
                <path id="Path_2021" d="M0 0h3.771v1.886H0z" class="cls-2" transform="rotate(-45 3.218 1.333)"/>
            </g>
        </g>
        <g id="Group_3366" transform="translate(12.211 10.7)">
            <path id="Path_2022" fill="#f3f3f1" d="M32.257 43.521H10.521a3.782 3.782 0 0 1-3.771-3.772V10.521a3.782 3.782 0 0 1 3.771-3.771h21.686a3.782 3.782 0 0 1 3.771 3.771l.051 29.222a3.774 3.774 0 0 1-3.772 3.778z" transform="translate(-6.75 -6.75)"/>
        </g>
        <g id="Group_3367" transform="translate(24.468 16.357)">
            <circle id="Ellipse_533" cx="2.357" cy="2.357" r="2.357" fill="#2fdf84"/>
        </g>
        <g id="Group_3368" transform="translate(20.697 25.785)">
            <path id="Path_2023" d="M23.507 20.878v-2.357a3.77 3.77 0 0 0-3.771-3.771h-4.715a3.77 3.77 0 0 0-3.771 3.771v2.357z" class="cls-5" transform="translate(-11.25 -14.75)"/>
        </g>
        <g id="Group_3369" transform="translate(32.953 31.442)">
            <circle id="Ellipse_534" cx="10.843" cy="10.843" r="10.843" class="cls-5"/>
        </g>
        <g id="Group_3370" transform="translate(12.211 10.7)">
            <path id="Path_2024" fill="#d5dbe1" d="M10.993 39.749V10.521a3.782 3.782 0 0 1 3.771-3.771h-4.243a3.782 3.782 0 0 0-3.771 3.771v29.228a3.782 3.782 0 0 0 3.771 3.771h4.243a3.782 3.782 0 0 1-3.771-3.771z" transform="translate(-6.75 -6.75)"/>
        </g>
        <g id="Group_3371" transform="translate(24.468 16.357)">
            <path id="Path_2025" d="M17.493 12.107a2.306 2.306 0 0 1 .236-.992 2.357 2.357 0 1 0 0 1.984 2.306 2.306 0 0 1-.236-.992z" class="cls-5" transform="translate(-13.25 -9.75)"/>
        </g>
        <g id="Group_3372" transform="translate(20.697 25.785)">
            <path id="Path_2026" d="M19.264 14.75h-4.243a3.77 3.77 0 0 0-3.771 3.771v2.357h4.243v-2.357a3.77 3.77 0 0 1 3.771-3.771z" class="cls-7" transform="translate(-11.25 -14.75)"/>
        </g>
        <g id="Group_3373" transform="translate(32.953 31.442)">
            <path id="Path_2027" d="M21.993 28.593a10.843 10.843 0 0 1 8.721-10.631 10.842 10.842 0 1 0-2.121 21.474 10.777 10.777 0 0 0 2.121-.211 10.843 10.843 0 0 1-8.721-10.632z" class="cls-7" transform="translate(-17.75 -17.75)"/>
        </g>
        <g id="Group_3374" transform="translate(18.339 34.742)">
            <path id="Path_2028" d="M10 19.5h11.314v2.829H10z" transform="translate(-10 -19.5)"/>
        </g>
        <g id="Group_3375" transform="translate(18.339 40.399)">
            <path id="Path_2029" d="M10 22.5h9.428v2.829H10z" transform="translate(-10 -22.5)"/>
        </g>
        <g id="Group_3376" transform="translate(23.054 14.943)">
            <path id="Path_2030" d="M16.271 16.543a3.771 3.771 0 1 1 3.771-3.771 3.775 3.775 0 0 1-3.771 3.771zm0-4.714a.943.943 0 1 0 .943.943.943.943 0 0 0-.943-.943z" transform="translate(-12.5 -9)"/>
        </g>
        <g id="Group_3377" transform="translate(19.282 24.371)">
            <path id="Path_2031" d="M25.585 21.543h-2.828v-2.357a2.36 2.36 0 0 0-2.357-2.357h-4.714a2.36 2.36 0 0 0-2.357 2.357v2.357H10.5v-2.357A5.19 5.19 0 0 1 15.686 14H20.4a5.19 5.19 0 0 1 5.186 5.186z" transform="translate(-10.5 -14)"/>
        </g>
        <g id="Group_3378" transform="translate(10.797 9.286)">
            <path id="Path_2032" d="M22.971 45.6H11.186A5.19 5.19 0 0 1 6 40.413V11.186A5.19 5.19 0 0 1 11.186 6h21.685a5.19 5.19 0 0 1 5.186 5.186v11.9h-2.829v-11.9a2.36 2.36 0 0 0-2.357-2.357H11.186a2.36 2.36 0 0 0-2.357 2.357v29.227a2.36 2.36 0 0 0 2.357 2.357h11.785z" transform="translate(-6 -6)"/>
        </g>
        <g id="Group_3379" transform="translate(31.539 30.028)">
            <path id="Path_2033" d="M29.257 41.514a12.257 12.257 0 1 1 12.257-12.257 12.271 12.271 0 0 1-12.257 12.257zm0-21.685a9.428 9.428 0 1 0 9.428 9.428 9.439 9.439 0 0 0-9.428-9.428z" transform="translate(-17 -17)"/>
        </g>
        <g id="Group_3380" transform="translate(37.14 37.111)">
            <path id="Path_2034" d="M24.741 30.644a1.408 1.408 0 0 1-1-.415l-3.771-3.771 2-2 2.7 2.7 5.6-6.4 2.129 1.861-6.6 7.543a1.418 1.418 0 0 1-1.018.483.394.394 0 0 1-.04-.001z" transform="translate(-19.97 -20.756)"/>
        </g>
    </g>
</svg>
